<?xml version="1.0" encoding="UTF-8" standalone="no"?>
<svg
   width="22"
   height="22"
   id="svg3613"
   version="1.1"
   xmlns="http://www.w3.org/2000/svg"
   xmlns:svg="http://www.w3.org/2000/svg"
   xmlns:rdf="http://www.w3.org/1999/02/22-rdf-syntax-ns#"
   xmlns:cc="http://creativecommons.org/ns#"
   xmlns:dc="http://purl.org/dc/elements/1.1/">
  <metadata
     id="metadata13">
    <rdf:RDF>
      <cc:Work
         rdf:about="">
        <dc:format>image/svg+xml</dc:format>
        <dc:type
           rdf:resource="http://purl.org/dc/dcmitype/StillImage" />
        <dc:title />
      </cc:Work>
    </rdf:RDF>
  </metadata>
  <defs
     id="defs3615">
    <style
       type="text/css"
       id="current-color-scheme">
      .ColorScheme-Text {
        color:#31363b;
      }
      .ColorScheme-Background{
        color:#E9E8E8;
      }
      .ColorScheme-ViewText {
        color:#31363b;
      }
      .ColorScheme-ViewBackground{
        color:#ffffff;
      }
      .ColorScheme-ViewHover {
        color:#000000;
      }
      .ColorScheme-ViewFocus{
        color:#5a5a5a;
      }
      .ColorScheme-ButtonText {
        color:#31363b;
      }
      .ColorScheme-ButtonBackground{
        color:#E9E8E8;
      }
      .ColorScheme-ButtonHover {
        color:#1489ff;
      }
      .ColorScheme-ButtonFocus{
        color:#2B74C7;
      }
</style>
  </defs>
  <g
     transform="matrix(1.0000029,0,0,1.000001,-420.71555,-526.79125)"
     id="22-22-applications-other">
    <rect
       style="opacity:0.01;fill:#000000;fill-opacity:0.00392157;stroke:none"
       id="rect3028"
       width="22"
       height="22"
       x="-7.1556997e-08"
       y="2.0000052"
       transform="matrix(0.99999706,0,0,0.99999899,420.71433,524.79072)" />
    <path
       style="fill:currentColor;fill-opacity:1;stroke:none"
       d="m 423.71432,529.79072 v 6.99999 h 6.99998 v -6.99999 z m 8.99998,0 v 6.99999 h 6.99998 v -6.99999 z m -7.99998,1 h 4.99999 v 4.99999 h -4.99999 z m 8.99997,0 h 4.99999 v 4.99999 h -4.99999 z m -9.99997,7.99999 v 6.99999 h 6.99998 v -6.99999 z m 8.99998,0 v 6.99999 h 0.99999 4.99999 1 v -1 -4.99999 -1 h -1 -4.99999 z m -7.99998,1 h 4.99999 v 4.99999 h -4.99999 z m 8.99997,0 h 4.99999 v 4.99999 h -4.99999 z"
       id="rect4298"
       class="ColorScheme-Text" />
  </g>
</svg>
