<?xml version="1.0" encoding="UTF-8" standalone="no"?>
<svg
   version="1.1"
   id="svg2"
   viewBox="0 0 22 22"
   width="22"
   height="22"
   xmlns="http://www.w3.org/2000/svg"
   xmlns:svg="http://www.w3.org/2000/svg"
   xmlns:rdf="http://www.w3.org/1999/02/22-rdf-syntax-ns#"
   xmlns:cc="http://creativecommons.org/ns#"
   xmlns:dc="http://purl.org/dc/elements/1.1/">
  <metadata
     id="metadata18">
    <rdf:RDF>
      <cc:Work
         rdf:about="">
        <dc:format>image/svg+xml</dc:format>
        <dc:type
           rdf:resource="http://purl.org/dc/dcmitype/StillImage" />
        <dc:title />
      </cc:Work>
    </rdf:RDF>
  </metadata>
  <defs
     id="defs3051">
    <style
       id="current-color-scheme"
       type="text/css">
      .ColorScheme-Text {
        color:#31363b;
      }
      </style>
  </defs>
  <g
     id="22-22-apport"
     transform="translate(0,-10)">
    <path
       id="path7"
       class="ColorScheme-Text"
       d="M 3,13 V 29 H 4 19 V 28 13 H 18 4 Z m 1,1 H 18 V 28 H 4 Z m 1,1 v 1 h 1 v -1 z m 1,1 v 2 h 2 v -2 z m 2,0 H 9 V 15 H 8 Z m 0,2 v 1 H 9 V 18 Z M 6,18 H 5 v 1 h 1 z m 7,-3 v 1 h 1 v -1 z m 1,1 v 2 h 2 v -2 z m 2,0 h 1 v -1 h -1 z m 0,2 v 1 h 1 v -1 z m -2,0 h -1 v 1 h 1 z m -5,3 v 2 h 4 v -2 z m 4,2 v 2 h 2 v -2 z m 2,2 v 2 h 2 V 25 Z M 9,23 H 7 v 2 H 9 Z M 7,25 H 5 v 2 h 2 z"
       style="fill:currentColor;fill-opacity:1;stroke:none" />
    <path
       id="path9"
       d="M 0,10 V 32 H 22 V 10 Z"
       style="opacity:1;fill:none" />
  </g>
</svg>
