<?xml version="1.0" encoding="UTF-8" standalone="no"?>
<svg
   id="svg36"
   viewBox="0 0 22 22"
   version="1.1"
   width="22"
   height="22"
   xmlns="http://www.w3.org/2000/svg"
   xmlns:svg="http://www.w3.org/2000/svg">
  <defs
     id="defs1" />
  <style
     type="text/css"
     id="current-color-scheme">
        .ColorScheme-Text {
            color:#232629;
        }
        .ColorScheme-NegativeText {
            color:#da4453;
        }
    </style>
  <g
     id="22-22-audio-volume-low"
     transform="translate(-44)">
    <path
       id="path2"
       d="M 44,0 H 66 V 22 H 44 Z"
       fill="none" />
    <g
       id="g11"
       class="ColorScheme-Text"
       fill="currentColor">
      <path
         id="path6"
         d="M 57.865,3.537 57.621,4.514 A 7,7 0 0 1 62,11 7,7 0 0 1 57.62,17.479 l 0.243,0.974 A 8,8 0 0 0 63,11 8,8 0 0 0 57.865,3.537 Z"
         opacity="0.25" />
      <path
         id="path4"
         d="M 58.324,7.281 57.785,8.143 A 4,4 0 0 1 59,11 4,4 0 0 1 57.79,13.861 l 0.538,0.864 A 5,5 0 0 0 60,11 5,5 0 0 0 58.324,7.281 Z"
         opacity="0.25" />
      <path
         id="path8"
         d="m 55,3 -5,5 v 6 l 5,5 h 1 V 3 Z m -8,5 v 6 h 2 V 8 Z" />
    </g>
  </g>
</svg>
