<?xml version="1.0" encoding="UTF-8" standalone="no"?>
<svg
   id="svg36"
   viewBox="0 0 22 22"
   version="1.1"
   width="22"
   height="22"
   xmlns="http://www.w3.org/2000/svg"
   xmlns:svg="http://www.w3.org/2000/svg">
  <defs
     id="defs1" />
  <style
     type="text/css"
     id="current-color-scheme">
        .ColorScheme-Text {
            color:#232629;
        }
        .ColorScheme-NegativeText {
            color:#da4453;
        }
    </style>
  <g
     id="22-22-audio-volume-medium"
     transform="translate(-22)">
    <path
       id="path12"
       d="M 22,0 H 44 V 22 H 22 Z"
       fill="none" />
    <g
       id="g18"
       class="ColorScheme-Text"
       fill="currentColor">
      <path
         id="path16"
         d="M 35.865,3.537 35.621,4.514 A 7,7 0 0 1 40,11 7,7 0 0 1 35.62,17.479 l 0.243,0.974 A 8,8 0 0 0 41,11 8,8 0 0 0 35.865,3.537 Z"
         opacity="0.25" />
      <path
         id="path14"
         d="M 36.324,7.281 35.785,8.143 A 4,4 0 0 1 37,11 4,4 0 0 1 35.79,13.861 l 0.538,0.864 A 5,5 0 0 0 38,11 5,5 0 0 0 36.324,7.281 Z" />
      <path
         id="path18"
         d="m 33,3 -5,5 v 6 l 5,5 h 1 V 3 Z m -8,5 v 6 h 2 V 8 Z" />
    </g>
  </g>
</svg>
