<?xml version="1.0" encoding="UTF-8" standalone="no"?>
<svg
   id="svg36"
   viewBox="0 0 22 22"
   version="1.1"
   width="22"
   height="22"
   xmlns="http://www.w3.org/2000/svg"
   xmlns:svg="http://www.w3.org/2000/svg">
  <defs
     id="defs1" />
  <style
     type="text/css"
     id="current-color-scheme">
        .ColorScheme-Text {
            color:#232629;
        }
        .ColorScheme-NegativeText {
            color:#da4453;
        }
    </style>
  <g
     id="22-22-audio-volume-high">
    <path
       id="path22"
       d="M 0,0 H 22 V 22 H 0 Z"
       fill="none" />
    <g
       id="g25"
       class="ColorScheme-Text"
       fill="currentColor">
      <path
         id="path854"
         d="M 13.865,3.537 13.621,4.514 A 7,7 0 0 1 18,11 7,7 0 0 1 13.62,17.479 l 0.243,0.974 A 8,8 0 0 0 19,11 8,8 0 0 0 13.865,3.537 Z" />
      <path
         id="path24"
         d="M 14.324,7.281 13.785,8.143 A 4,4 0 0 1 15,11 4,4 0 0 1 13.79,13.861 l 0.538,0.864 A 5,5 0 0 0 16,11 5,5 0 0 0 14.324,7.281 Z" />
      <path
         id="path852"
         d="M 11,3 6,8 v 6 l 5,5 h 1 V 3 Z M 3,8 v 6 H 5 V 8 Z" />
    </g>
  </g>
</svg>
