<?xml version="1.0" encoding="UTF-8" standalone="no"?>
<svg
   id="svg2"
   viewBox="0 0 22 22"
   version="1.1"
   width="22"
   height="22"
   xmlns="http://www.w3.org/2000/svg"
   xmlns:svg="http://www.w3.org/2000/svg">
  <defs
     id="defs1" />
  <style
     type="text/css"
     id="current-color-scheme">
        .ColorScheme-Text {
            color:#232629;
        }
    </style>
  <g
     id="22-22-drive"
     transform="translate(0,-10)">
    <path
       id="path9"
       d="M 0,10 V 32 H 22 V 10 Z"
       fill="none" />
    <path
       id="path854"
       d="M 5,13 V 29 H 17 V 13 Z m 4,1 h 4 a 3,3 0 0 1 3,3 v 2.088 a 1.5,1.5 0 0 0 -1,1.412 1.5,1.5 0 0 0 1,1.412 V 24 l -2,2 H 8 L 6,24 V 21.912 A 1.5,1.5 0 0 0 7,20.5 1.5,1.5 0 0 0 6,19.088 V 17 A 3,3 0 0 1 9,14 Z M 7,27 h 4 v 1 H 7 Z m 6,0 h 2 v 1 h -2 z"
       class="ColorScheme-Text"
       fill="currentColor" />
  </g>
</svg>
