<?xml version="1.0" encoding="UTF-8" standalone="no"?>
<svg
   viewBox="0 0 22 22"
   id="svg2"
   version="1.1"
   width="22"
   height="22"
   xmlns="http://www.w3.org/2000/svg"
   xmlns:svg="http://www.w3.org/2000/svg"
   xmlns:rdf="http://www.w3.org/1999/02/22-rdf-syntax-ns#"
   xmlns:cc="http://creativecommons.org/ns#"
   xmlns:dc="http://purl.org/dc/elements/1.1/">
  <metadata
     id="metadata21">
    <rdf:RDF>
      <cc:Work
         rdf:about="">
        <dc:format>image/svg+xml</dc:format>
        <dc:type
           rdf:resource="http://purl.org/dc/dcmitype/StillImage" />
        <dc:title />
      </cc:Work>
    </rdf:RDF>
  </metadata>
  <defs
     id="defs3051">
    <style
       type="text/css"
       id="current-color-scheme">
      .ColorScheme-Text {
        color:#31363b;
      }
      </style>
  </defs>
  <g
     transform="translate(1,-11)"
     id="22-22-start-here-kde">
    <rect
       style="fill:none;fill-opacity:1;stroke:none"
       id="rect4150"
       width="22"
       height="22"
       x="-1"
       y="11" />
    <g
       id="g4177"
       transform="matrix(1.0038894,0,0,1,-424.36617,-514.7907)">
      <path
         id="path16"
         style="fill:currentColor"
         transform="matrix(0.99612567,0,0,1,421.72591,515.7907)"
         d="m 7,13 a 1,1 0 0 0 -1,1 1,1 0 0 0 1,1 1,1 0 0 0 1,-1 1,1 0 0 0 -1,-1 z m 7,0 -2,2 3,3 -3,3 2,2 5,-5 z M 4.5,19 A 1.5,1.5 0 0 0 3,20.5 1.5,1.5 0 0 0 4.5,22 1.5,1.5 0 0 0 6,20.5 1.5,1.5 0 0 0 4.5,19 Z M 9,25 a 2.0000001,2 0 0 0 -2,2 2.0000001,2 0 0 0 2,2 2.0000001,2 0 0 0 2,-2 2.0000001,2 0 0 0 -2,-2 z"
         class="ColorScheme-Text" />
    </g>
  </g>
</svg>
