<?xml version="1.0" encoding="UTF-8" standalone="no"?>
<svg
   version="1.1"
   id="svg2"
   viewBox="0 0 22 22"
   width="22"
   height="22"
   xmlns="http://www.w3.org/2000/svg"
   xmlns:svg="http://www.w3.org/2000/svg"
   xmlns:rdf="http://www.w3.org/1999/02/22-rdf-syntax-ns#"
   xmlns:cc="http://creativecommons.org/ns#"
   xmlns:dc="http://purl.org/dc/elements/1.1/">
  <metadata
     id="metadata32">
    <rdf:RDF>
      <cc:Work
         rdf:about="">
        <dc:format>image/svg+xml</dc:format>
        <dc:type
           rdf:resource="http://purl.org/dc/dcmitype/StillImage" />
        <dc:title />
      </cc:Work>
    </rdf:RDF>
  </metadata>
  <defs
     id="defs3051">
    <style
       type="text/css"
       id="current-color-scheme">
      .ColorScheme-Text {
        color:#31363b;
      }
      .ColorScheme-Background {
        color:#eff0f1;
      }
      .ColorScheme-Highlight {
        color:#3daee9;
      }
      .ColorScheme-ViewText {
        color:#31363b;
      }
      .ColorScheme-ViewBackground {
        color:#fcfcfc;
      }
      .ColorScheme-ViewHover {
        color:#93cee9;
      }
      .ColorScheme-ViewFocus{
        color:#3daee9;
      }
      .ColorScheme-ButtonText {
        color:#31363b;
      }
      .ColorScheme-ButtonBackground {
        color:#eff0f1;
      }
      .ColorScheme-ButtonHover {
        color:#93cee9;
      }
      .ColorScheme-ButtonFocus{
        color:#3daee9;
      }
      .ColorScheme-NegativeText {
        color:#da4453;
      }
      </style>
  </defs>
  <g
     id="22-22-touchpad_disabled"
     transform="translate(0,-10)">
    <path
       id="path17"
       class="ColorScheme-Text"
       d="m 4,13 c -0.554,0 -1,0.446 -1,1 v 14 c 0,0.554 0.446,1 1,1 h 14 c 0.554,0 1,-0.446 1,-1 V 14 c 0,-0.554 -0.446,-1 -1,-1 z m 0,1 H 18 V 25 H 4 Z m 0,12 h 6 v 2 H 4 Z m 8,0 h 6 v 2 h -6 z"
       style="fill:currentColor;fill-opacity:0.6;stroke:none" />
    <path
       id="path19"
       d="M 0,10 V 32 H 22 V 10 Z"
       style="opacity:1;fill:none" />
    <path
       id="path21"
       class="ColorScheme-NegativeText"
       d="M 8.8476562,17 8,17.847656 10.152344,20 8,22.152344 8.8476562,23 11,20.847656 13.152344,23 14,22.152344 11.847656,20 14,17.847656 13.152344,17 11,19.152344 Z"
       style="fill:currentColor;fill-opacity:1;stroke:none" />
  </g>
</svg>
