<?xml version="1.0" encoding="UTF-8" standalone="no"?>
<!-- Created with Inkscape (http://www.inkscape.org/) -->

<svg
   version="1.1"
   width="22.00001"
   height="21.999983"
   viewBox="0 0 22.00001 21.999983"
   id="svg"
   xmlns="http://www.w3.org/2000/svg"
   xmlns:svg="http://www.w3.org/2000/svg"
   xmlns:rdf="http://www.w3.org/1999/02/22-rdf-syntax-ns#"
   xmlns:cc="http://creativecommons.org/ns#"
   xmlns:dc="http://purl.org/dc/elements/1.1/">
  <defs
     id="defs81">
    <style
       type="text/css"
       id="current-color-scheme">
      .ColorScheme-Text {
        color:#7B7C7E;
      }
      .ColorScheme-Background{
        color:#EFF0F1;
      }
      .ColorScheme-Highlight{
        color:#3DAEE6;
      }
      .ColorScheme-ViewText {
        color:#7B7C7E;
      }
      .ColorScheme-ViewBackground{
        color:#FCFCFC;
      }
      .ColorScheme-ViewHover {
        color:#3DAEE6;
      }
      .ColorScheme-ViewFocus{
        color:#1E92FF;
      }
      .ColorScheme-ButtonText {
        color:#7B7C7E;
      }
      .ColorScheme-ButtonBackground{
        color:#EFF0F1;
      }
      .ColorScheme-ButtonHover {
        color:#3DAEE6;
      }
      .ColorScheme-ButtonFocus{
        color:#1E92FF;
      }
</style>
  </defs>
  <metadata
     id="metadata34">
    <rdf:RDF>
      <cc:Work
         rdf:about="">
        <dc:format>image/svg+xml</dc:format>
        <dc:type
           rdf:resource="http://purl.org/dc/dcmitype/StillImage" />
        <dc:title />
      </cc:Work>
    </rdf:RDF>
  </metadata>
  <g
     id="22-22-video-display-brightness"
     transform="matrix(0.75000099,0,0,0.75000099,-289.42897,-387.59904)">
    <rect
       style="opacity:0.01;fill:#00000f;fill-opacity:0.00392157;stroke:none"
       id="rect3074"
       width="29.333307"
       height="29.333271"
       x="385.90479"
       y="516.79803" />
    <path
       id="rect7235"
       style="fill:currentColor;fill-opacity:1;stroke:none"
       d="m 393.90479,542.13129 h 13.33334 v 1.33335 h -13.33334 z m 4,-2.66666 h 5.33332 v 2.66664 h -5.33332 z m -10.66667,-18.66662 v 18.6666 h 26.66663 v -18.6666 z m 1.33333,1.33333 h 23.99997 v 13.33328 h -23.99997 z"
       class="ColorScheme-Text" />
    <rect
       style="opacity:0.2;fill:currentColor;fill-opacity:1;stroke:none"
       id="rect7240"
       width="23.999973"
       height="13.333305"
       x="388.57144"
       y="522.13135"
       class="ColorScheme-Text" />
    <path
       style="fill:currentColor;fill-opacity:1;stroke:none"
       d="m 400.57143,524.13133 c -2.57733,0 -4.66666,2.08933 -4.66666,4.66666 0,2.57732 2.08933,4.66666 4.66666,4.66666 2.57733,0 4.66666,-2.08934 4.66666,-4.66666 0,-2.57733 -2.08933,-4.66666 -4.66666,-4.66666 z m 0,1.33333 v 6.66666 c -1.84095,0 -3.33333,-1.49238 -3.33333,-3.33333 0,-1.84095 1.49238,-3.33333 3.33333,-3.33333 z"
       id="path3891"
       class="ColorScheme-Text" />
  </g>
</svg>
