<?xml version="1.0" encoding="UTF-8" standalone="no"?>
<svg
   version="1.1"
   id="svg2"
   viewBox="0 0 32 32"
   width="32"
   height="32"
   xmlns="http://www.w3.org/2000/svg"
   xmlns:svg="http://www.w3.org/2000/svg"
   xmlns:rdf="http://www.w3.org/1999/02/22-rdf-syntax-ns#"
   xmlns:cc="http://creativecommons.org/ns#"
   xmlns:dc="http://purl.org/dc/elements/1.1/">
  <metadata
     id="metadata18">
    <rdf:RDF>
      <cc:Work
         rdf:about="">
        <dc:format>image/svg+xml</dc:format>
        <dc:type
           rdf:resource="http://purl.org/dc/dcmitype/StillImage" />
        <dc:title />
      </cc:Work>
    </rdf:RDF>
  </metadata>
  <defs
     id="defs3051">
    <style
       id="current-color-scheme"
       type="text/css">
      .ColorScheme-Text {
        color:#31363b;
      }
      </style>
  </defs>
  <g
     id="akonadi"
     transform="translate(-22)">
    <path
       id="path12"
       class="ColorScheme-Text"
       d="M 38,4 A 12,3 0 0 0 26,7 v 18 a 12,3 0 0 0 12,3 12,3 0 0 0 12,-3 V 19 13 7 A 12,3 0 0 0 38,4 Z m 0,1 A 11,2 0 0 1 49,7 11,2 0 0 1 38,9 11,2 0 0 1 27,7 11,2 0 0 1 38,5 Z M 49,8.1914062 V 13 A 11,2 0 0 1 38,15 11,2 0 0 1 27,13 V 8.1953125 A 12,3 0 0 0 38,10 12,3 0 0 0 49,8.1914062 Z m 0,5.9999998 V 19 A 11,2 0 0 1 38,21 11,2 0 0 1 27,19 V 14.195312 A 12,3 0 0 0 38,16 12,3 0 0 0 49,14.191406 Z m 0,6 V 25 A 11,2 0 0 1 38,27 11,2 0 0 1 27,25 V 20.195312 A 12,3 0 0 0 38,22 12,3 0 0 0 49,20.191406 Z"
       style="fill:currentColor;fill-opacity:1;stroke:none" />
    <path
       id="path14"
       d="M 22,0 V 32 H 54 V 0 Z"
       style="opacity:1;fill:none" />
  </g>
</svg>
