<?xml version="1.0" encoding="UTF-8" standalone="no"?>
<svg
   width="31.999996"
   height="31.999996"
   id="svg3613"
   version="1.1"
   xmlns="http://www.w3.org/2000/svg"
   xmlns:svg="http://www.w3.org/2000/svg"
   xmlns:rdf="http://www.w3.org/1999/02/22-rdf-syntax-ns#"
   xmlns:cc="http://creativecommons.org/ns#"
   xmlns:dc="http://purl.org/dc/elements/1.1/">
  <metadata
     id="metadata13">
    <rdf:RDF>
      <cc:Work
         rdf:about="">
        <dc:format>image/svg+xml</dc:format>
        <dc:type
           rdf:resource="http://purl.org/dc/dcmitype/StillImage" />
        <dc:title />
      </cc:Work>
    </rdf:RDF>
  </metadata>
  <defs
     id="defs3615">
    <style
       type="text/css"
       id="current-color-scheme">
      .ColorScheme-Text {
        color:#31363b;
      }
      .ColorScheme-Background{
        color:#E9E8E8;
      }
      .ColorScheme-ViewText {
        color:#31363b;
      }
      .ColorScheme-ViewBackground{
        color:#ffffff;
      }
      .ColorScheme-ViewHover {
        color:#000000;
      }
      .ColorScheme-ViewFocus{
        color:#5a5a5a;
      }
      .ColorScheme-ButtonText {
        color:#31363b;
      }
      .ColorScheme-ButtonBackground{
        color:#E9E8E8;
      }
      .ColorScheme-ButtonHover {
        color:#1489ff;
      }
      .ColorScheme-ButtonFocus{
        color:#2B74C7;
      }
</style>
  </defs>
  <g
     transform="matrix(1.0000028,0,0,1.0000009,-420.71551,-516.7912)"
     id="applications-other">
    <rect
       style="opacity:0.01;fill:#000000;fill-opacity:0.00392157;stroke:none"
       id="rect2994"
       width="32"
       height="32"
       x="-7.1557004e-08"
       y="-7.9999948"
       transform="matrix(0.99999706,0,0,0.99999899,420.71433,524.79072)" />
    <path
       style="fill:currentColor;fill-opacity:1;stroke:none"
       d="m 424.71433,520.79075 v 9.99995 l 9.99995,10e-6 v -9.99994 z m 13.99994,2e-5 v 9.99994 l 9.99998,-10e-6 v -9.99995 z m -12.99995,0.99994 h 7.99998 v 7.99999 h -7.99998 z m 13.99996,0 h 7.99998 v 7.99999 h -7.99998 z m -14.99995,13 v 9.99998 l 9.99995,2e-5 v -9.99998 z m 13.99994,2e-5 v 9.99998 l 1.99999,-2e-5 h 5.99999 2 v -1.99998 -5.99999 -2.00001 h -2 -5.99999 z m -12.99995,0.99997 h 7.99998 v 7.99999 h -7.99998 z m 13.99996,0 h 7.99998 v 7.99999 h -7.99998 z"
       id="path2996"
       class="ColorScheme-Text" />
  </g>
</svg>
