<?xml version="1.0" encoding="UTF-8" standalone="no"?>
<svg
   version="1.1"
   id="svg2"
   viewBox="0 0 32 32"
   width="32"
   height="32"
   xmlns="http://www.w3.org/2000/svg"
   xmlns:svg="http://www.w3.org/2000/svg"
   xmlns:rdf="http://www.w3.org/1999/02/22-rdf-syntax-ns#"
   xmlns:cc="http://creativecommons.org/ns#"
   xmlns:dc="http://purl.org/dc/elements/1.1/">
  <metadata
     id="metadata18">
    <rdf:RDF>
      <cc:Work
         rdf:about="">
        <dc:format>image/svg+xml</dc:format>
        <dc:type
           rdf:resource="http://purl.org/dc/dcmitype/StillImage" />
        <dc:title />
      </cc:Work>
    </rdf:RDF>
  </metadata>
  <defs
     id="defs3051">
    <style
       id="current-color-scheme"
       type="text/css">
      .ColorScheme-Text {
        color:#31363b;
      }
      </style>
  </defs>
  <g
     id="apport"
     transform="translate(-22)">
    <path
       id="path12"
       class="ColorScheme-Text"
       d="M 26,4 V 28 H 50 V 4 Z m 1,1 H 49 V 27 H 27 Z m 2,2 v 2 h 2 V 7 Z m 2,2 v 3 h 3 V 9 Z m 3,0 h 2 V 7 h -2 z m 0,3 v 2 h 2 v -2 z m -3,0 h -2 v 2 h 2 z m 9,-5 v 2 h 2 V 7 Z m 2,2 v 3 h 3 V 9 Z m 3,0 h 2 V 7 h -2 z m 0,3 v 2 h 2 v -2 z m -3,0 h -2 v 2 h 2 z m -8,5 v 2 h 8 v -2 z m 8,2 v 2 h 2 v -2 z m 2,2 v 2 h 2 V 21 Z M 34,19 h -2 v 2 h 2 z m -2,2 h -2 v 2 h 2 z"
       style="fill:currentColor;fill-opacity:1;stroke:none" />
    <path
       id="path14"
       d="M 22,0 V 32 H 54 V 0 Z"
       style="opacity:1;fill:none" />
  </g>
</svg>
