<?xml version="1.0" encoding="UTF-8" standalone="no"?>
<svg
   id="svg36"
   viewBox="0 0 32 32"
   version="1.1"
   width="32"
   height="32"
   xmlns="http://www.w3.org/2000/svg"
   xmlns:svg="http://www.w3.org/2000/svg">
  <defs
     id="defs1" />
  <style
     type="text/css"
     id="current-color-scheme">
        .ColorScheme-Text {
            color:#232629;
        }
        .ColorScheme-NegativeText {
            color:#da4453;
        }
    </style>
  <g
     id="audio-volume-muted"
     transform="matrix(1.4545455,0,0,1.4545455,-96.000003,0)">
    <path
       id="path30-6"
       d="M 66,0 H 88 V 22 H 66 Z"
       fill="none" />
    <path
       id="path852-8-9-1"
       d="m 76.999998,2.7499997 -5.5,5.5 v 5.5000013 l 5.5,5.499999 h 1.375 V 2.75 Z m -8.25,5.5 v 5.5000013 h 2.0625 V 8.2499997 Z"
       class="ColorScheme-Text"
       fill="currentColor" />
    <path
       id="path1152"
       d="m 83.187496,6.8749999 c -2.278173,0 -4.124999,1.846831 -4.124999,4.1250001 0,2.278169 1.846826,4.125 4.124999,4.125 2.278174,0 4.125,-1.846831 4.125,-4.125 0,-2.2781691 -1.846826,-4.1250001 -4.125,-4.1250001 z m 0,0.6875 c 1.898479,0 3.4375,1.539021 3.4375,3.4375001 0,0.824749 -0.310724,1.556077 -0.794922,2.148438 L 81.039059,8.3574219 c 0.592361,-0.484197 1.323688,-0.794922 2.148437,-0.794922 z m -2.642578,1.289063 4.791016,4.7910151 c -0.592361,0.484197 -1.323689,0.794922 -2.148438,0.794922 -1.898478,0 -3.4375,-1.539021 -3.4375,-3.4375 0,-0.824749 0.310725,-1.5560761 0.794922,-2.1484371 z"
       class="ColorScheme-NegativeText"
       fill="currentColor" />
  </g>
</svg>
