<?xml version="1.0" encoding="UTF-8" standalone="no"?>
<svg
   id="svg36"
   viewBox="0 0 32 32"
   version="1.1"
   width="32"
   height="32"
   xmlns="http://www.w3.org/2000/svg"
   xmlns:svg="http://www.w3.org/2000/svg">
  <defs
     id="defs1" />
  <style
     type="text/css"
     id="current-color-scheme">
        .ColorScheme-Text {
            color:#232629;
        }
        .ColorScheme-NegativeText {
            color:#da4453;
        }
    </style>
  <g
     id="audio-volume-low"
     transform="matrix(1.4545455,0,0,1.4545455,-64.000002,0)">
    <path
       id="path2-5"
       d="M 44,0 H 66 V 22 H 44 Z"
       fill="none" />
    <path
       id="path852-8-9"
       d="m 54.999998,2.7499997 -5.499999,5.5 v 5.5000013 l 5.499999,5.499998 h 1.375001 V 2.75 Z m -8.249999,5.5 v 5.5000013 h 2.0625 V 8.2499997 Z"
       class="ColorScheme-Text"
       fill="currentColor" />
    <path
       id="path926-73"
       d="m 58.265624,3.4348147 -0.167847,0.674072 A 7.5624998,7.5624998 0 0 1 62.562499,11 7.5624998,7.5624998 0 0 1 58.097777,17.888427 l 0.170532,0.683472 A 8.2499997,8.2499997 0 0 0 63.249998,11 8.2499997,8.2499997 0 0 0 58.265624,3.4348147 Z"
       class="ColorScheme-Text"
       fill="currentColor"
       opacity="0.25" />
    <path
       id="path926-7-6"
       d="m 58.374388,7.5718997 -0.359863,0.617675 A 4.125,4.125 0 0 1 59.124999,11 4.125,4.125 0 0 1 58.013182,13.809082 l 0.359864,0.617676 A 4.8125,4.8125 0 0 0 59.812499,11 4.8125,4.8125 0 0 0 58.374388,7.5718997 Z"
       class="ColorScheme-Text"
       fill="currentColor"
       opacity="0.25" />
  </g>
</svg>
