<?xml version="1.0" encoding="UTF-8" standalone="no"?>
<svg
   id="svg36"
   viewBox="0 0 32 32"
   version="1.1"
   width="32"
   height="32"
   xmlns="http://www.w3.org/2000/svg"
   xmlns:svg="http://www.w3.org/2000/svg">
  <defs
     id="defs1" />
  <style
     type="text/css"
     id="current-color-scheme">
        .ColorScheme-Text {
            color:#232629;
        }
        .ColorScheme-NegativeText {
            color:#da4453;
        }
    </style>
  <g
     id="audio-volume-medium"
     transform="matrix(1.4545455,0,0,1.4545455,-32.000001,0)">
    <path
       id="path12-7"
       d="M 22,0 H 44 V 22 H 22 Z"
       fill="none" />
    <path
       id="path852-8-2"
       d="m 32.999999,2.7499999 -5.5,5.5 v 5.5000011 l 5.5,5.499998 H 34.375 V 2.75 Z m -8.25,5.5 v 5.5000011 h 2.0625 V 8.2499999 Z"
       class="ColorScheme-Text"
       fill="currentColor" />
    <path
       id="path926-2"
       d="m 36.265624,3.4348149 -0.167847,0.674072 A 7.5624998,7.5624998 0 0 1 40.562499,11 7.5624998,7.5624998 0 0 1 36.097777,17.888427 l 0.170532,0.683472 A 8.2499997,8.2499997 0 0 0 41.249998,11 8.2499997,8.2499997 0 0 0 36.265624,3.4348149 Z"
       class="ColorScheme-Text"
       fill="currentColor"
       opacity="0.25" />
    <path
       id="path926-7-8"
       d="m 36.374388,7.5718999 -0.359863,0.617675 A 4.125,4.125 0 0 1 37.124999,11 4.125,4.125 0 0 1 36.013182,13.809082 l 0.359864,0.617676 A 4.8125,4.8125 0 0 0 37.812499,11 4.8125,4.8125 0 0 0 36.374388,7.5718999 Z"
       class="ColorScheme-Text"
       fill="currentColor" />
  </g>
</svg>
