<?xml version="1.0" encoding="UTF-8" standalone="no"?>
<svg
   id="svg36"
   viewBox="0 0 32 32"
   version="1.1"
   width="32"
   height="32"
   xmlns="http://www.w3.org/2000/svg"
   xmlns:svg="http://www.w3.org/2000/svg">
  <defs
     id="defs1" />
  <style
     type="text/css"
     id="current-color-scheme">
        .ColorScheme-Text {
            color:#232629;
        }
        .ColorScheme-NegativeText {
            color:#da4453;
        }
    </style>
  <g
     id="audio-volume-high"
     transform="translate(0,32)">
    <path
       id="path22-6"
       d="M 0,-32 H 32.000001 V 1e-6 H 0 Z"
       fill="none" />
    <path
       id="path852-8"
       d="m 16,-28 -8,8 v 8.000001 l 8,7.9999984 h 2.000001 V -28 Z m -12,8 v 8.000001 H 6.9999999 V -20 Z"
       class="ColorScheme-Text"
       fill="currentColor" />
    <path
       id="path926"
       d="m 20.75,-27.003906 -0.244141,0.980468 A 11,11 0 0 1 27,-16 11,11 0 0 1 20.505859,-5.9804688 l 0.248047,0.9941407 A 12,12 0 0 0 28,-16 12,12 0 0 0 20.75,-27.003906 Z"
       class="ColorScheme-Text"
       fill="currentColor" />
    <path
       id="path926-7"
       d="m 20.908203,-20.986328 -0.523437,0.898437 A 6.0000002,6.0000002 0 0 1 22,-16 a 6.0000002,6.0000002 0 0 1 -1.617188,4.085938 l 0.523438,0.898437 A 7.0000002,7.0000002 0 0 0 23,-16 7.0000002,7.0000002 0 0 0 20.908203,-20.986328 Z"
       class="ColorScheme-Text"
       fill="currentColor" />
  </g>
</svg>
