<?xml version="1.0" encoding="UTF-8" standalone="no"?>
<svg
   id="svg2"
   viewBox="0 0 32 32"
   version="1.1"
   width="32"
   height="32"
   xmlns="http://www.w3.org/2000/svg"
   xmlns:svg="http://www.w3.org/2000/svg">
  <defs
     id="defs1" />
  <style
     type="text/css"
     id="current-color-scheme">
        .ColorScheme-Text {
            color:#232629;
        }
    </style>
  <g
     id="configure"
     transform="translate(-22)">
    <path
       id="path11"
       d="M 40.5,6 A 3.5,3.5 0 0 0 37.041016,9 H 26 v 1 H 37.039062 A 3.5,3.5 0 0 0 40.5,13 3.5,3.5 0 0 0 43.958984,10 H 50 V 9 H 43.960938 A 3.5,3.5 0 0 0 40.5,6 Z m -11,13 A 3.5,3.5 0 0 0 26,22.5 3.5,3.5 0 0 0 29.5,26 3.5,3.5 0 0 0 32.960938,23 H 50 V 22 H 32.958984 A 3.5,3.5 0 0 0 29.5,19 Z m 0,1 A 2.5,2.5 0 0 1 32,22.5 2.5,2.5 0 0 1 29.5,25 2.5,2.5 0 0 1 27,22.5 2.5,2.5 0 0 1 29.5,20 Z"
       class="ColorScheme-Text"
       fill="currentColor" />
    <path
       id="path14"
       d="M 22,0 V 32 H 54 V 0 Z"
       fill="none" />
  </g>
</svg>
