<?xml version="1.0" encoding="UTF-8" standalone="no"?>
<!-- Created with Inkscape (http://www.inkscape.org/) -->

<svg
   width="31.999985"
   height="31.999985"
   id="svg3869"
   version="1.1"
   viewBox="0 0 31.999985 31.999985"
   xmlns="http://www.w3.org/2000/svg"
   xmlns:svg="http://www.w3.org/2000/svg"
   xmlns:rdf="http://www.w3.org/1999/02/22-rdf-syntax-ns#"
   xmlns:cc="http://creativecommons.org/ns#"
   xmlns:dc="http://purl.org/dc/elements/1.1/">
  <defs
     id="defs3871">
    <style
       type="text/css"
       id="current-color-scheme">
      .ColorScheme-Text {
        color:#31363b;
      }
      .ColorScheme-Background {
        color:#eff0f1;
      }
      .ColorScheme-Highlight {
        color:#3daee9;
      }
      .ColorScheme-ViewText {
        color:#31363b;
      }
      .ColorScheme-ViewBackground {
        color:#fcfcfc;
      }
      .ColorScheme-ViewHover {
        color:#93cee9;
      }
      .ColorScheme-ViewFocus{
        color:#3daee9;
      }
      .ColorScheme-ButtonText {
        color:#31363b;
      }
      .ColorScheme-ButtonBackground {
        color:#eff0f1;
      }
      .ColorScheme-ButtonHover {
        color:#93cee9;
      }
      .ColorScheme-ButtonFocus{
        color:#3daee9;
      }
      </style>
  </defs>
  <metadata
     id="metadata3874">
    <rdf:RDF>
      <cc:Work
         rdf:about="">
        <dc:format>image/svg+xml</dc:format>
        <dc:type
           rdf:resource="http://purl.org/dc/dcmitype/StillImage" />
        <dc:title />
      </cc:Work>
    </rdf:RDF>
  </metadata>
  <g
     id="layer1"
     transform="translate(-321,-529.36218)">
    <g
       id="device-notifier">
      <path
         id="rect4196"
         transform="translate(321,529.36218)"
         d="M 9,2 V 16 H 8 7 v 14 h 1 16 1 V 16 H 24 23 V 2 Z m 1,3 h 2 v 8 h -2 z m 10,0 h 2 v 8 h -2 z m -7,3 h 2 v 5 h -2 z m 4,0 h 2 v 5 H 17 Z M 8,17 H 24 V 29 H 8 Z m 8,1 -2,2 h 4 z m -6,7 v 1 h 12 v -1 z m 1,2 v 1 h 10 v -1 z"
         style="opacity:1;fill:currentColor;fill-opacity:1;stroke:none;stroke-width:0.1;stroke-linecap:square;stroke-linejoin:miter;stroke-miterlimit:4;stroke-dasharray:none;stroke-dashoffset:0;stroke-opacity:1"
         class="ColorScheme-Text" />
      <rect
         y="529.36218"
         x="321"
         height="31.999985"
         width="31.999985"
         id="rect4151"
         style="opacity:0.2;fill:none;fill-opacity:1;stroke:none" />
    </g>
  </g>
</svg>
