<?xml version="1.0" encoding="UTF-8" standalone="no"?>
<svg
   id="svg32"
   version="1.1"
   viewBox="0 0 17.007811 16"
   width="17.007811"
   height="16"
   xmlns="http://www.w3.org/2000/svg"
   xmlns:svg="http://www.w3.org/2000/svg">
  <defs
     id="defs1" />
  <style
     type="text/css"
     id="current-color-scheme">
        .ColorScheme-Text {
            color:#232629;
        }
        .ColorScheme-NeutralText {
            color:#f67400;
        }
        .ColorScheme-NegativeText {
            color:#da4453;
        }
    </style>
  <g
     id="disk-quota"
     transform="translate(-328.99219,-537.3622)"
     class="ColorScheme-Text"
     fill="currentColor">
    <path
       id="path2"
       d="m 328.99219,537.3622 v 16 h 10 v -1 h -9 v -8 h 3 v -0.01 l 0.008,0.01 2,-2 h 8.99219 v 3 h 1 v -6 H 338 l -2,-2 -0.008,0.01 v -0.01 h -6 z" />
    <path
       id="path4"
       d="m 343,546.3622 a 3,1 0 0 0 -3,1 v 5 a 3,1 0 0 0 3,1 3,1 0 0 0 3,-1 v -5 a 3,1 0 0 0 -3,-1 z m 0,1 a 3,1 0 0 1 2,0.25781 v 0.48633 a 3,1 0 0 1 -2,0.25586 3,1 0 0 1 -2,-0.25781 v -0.48633 a 3,1 0 0 1 2,-0.25586 z m -2,1.74414 a 3,1 0 0 0 2,0.25586 3,1 0 0 0 2,-0.25586 v 1 a 3,1 0 0 1 -2,0.25586 3,1 0 0 1 -2,-0.25781 z m 0,2 a 3,1 0 0 0 2,0.25586 3,1 0 0 0 2,-0.25586 v 1 a 3,1 0 0 1 -2,0.25586 3,1 0 0 1 -2,-0.25781 z" />
  </g>
</svg>
