<?xml version="1.0" encoding="UTF-8" standalone="no"?>
<svg
   id="svg32"
   version="1.1"
   viewBox="0 0 17.007811 16"
   width="17.007811"
   height="16"
   xmlns="http://www.w3.org/2000/svg"
   xmlns:svg="http://www.w3.org/2000/svg">
  <defs
     id="defs1" />
  <style
     type="text/css"
     id="current-color-scheme">
        .ColorScheme-Text {
            color:#232629;
        }
        .ColorScheme-NeutralText {
            color:#f67400;
        }
        .ColorScheme-NegativeText {
            color:#da4453;
        }
    </style>
  <g
     id="disk-quota-high"
     transform="translate(-328.99219,-537.3622)">
    <path
       id="path14"
       d="m 328.99219,537.3622 v 16 h 10 v -1 h -9 v -8 h 3 v -0.01 l 0.008,0.01 2,-2 h 8.99219 v 3 h 1 v -6 H 338 l -2,-2 -0.008,0.01 v -0.01 h -6 z"
       class="ColorScheme-Text"
       fill="currentColor" />
    <path
       id="path16"
       transform="translate(326,534.3622)"
       d="m 17,12 c -1.656854,0 -3,0.447715 -3,1 v 5 c 0,0.552285 1.343146,1 3,1 1.656854,0 3,-0.447715 3,-1 v -5 c 0,-0.552285 -1.343146,-1 -3,-1 z m 0,1 c 0.739186,8.7e-4 1.451386,0.09268 2,0.257812 v 0.486329 C 18.450517,13.908567 17.738413,13.999666 17,14 16.260814,13.99913 15.548614,13.907323 15,13.742188 V 13.255859 C 15.549483,13.091433 16.261587,13.000334 17,13 Z"
       class="ColorScheme-NegativeText"
       fill="currentColor" />
  </g>
</svg>
