<?xml version="1.0" encoding="UTF-8" standalone="no"?>
<svg
   id="svg2"
   viewBox="0 0 32 32"
   version="1.1"
   width="32"
   height="32"
   xmlns="http://www.w3.org/2000/svg"
   xmlns:svg="http://www.w3.org/2000/svg">
  <defs
     id="defs1" />
  <style
     type="text/css"
     id="current-color-scheme">
        .ColorScheme-Text {
            color:#232629;
        }
    </style>
  <g
     id="drive"
     transform="translate(-22)">
    <path
       id="path14"
       d="M 22,0 V 32 H 54 V 0 Z"
       fill="none" />
    <path
       id="path927"
       d="M 29,4 V 28 H 47 V 4 Z m 5,1 h 8 c 2.209139,0 4,1.790861 4,4 v 3.054688 C 44.837558,12.291969 44.001983,13.31359 44,14.5 c 1.29e-4,1.187878 0.836122,2.211643 2,2.449219 V 21 l -4,4 H 34 L 30,21 V 16.945312 C 31.162442,16.708031 31.998017,15.68641 32,14.5 31.999871,13.312122 31.163878,12.288357 30,12.050781 V 9 c 0,-2.209139 1.790861,-4 4,-4 z m -2,21 h 7 v 1 h -7 z m 9,0 h 3 v 1 h -3 z"
       class="ColorScheme-Text"
       fill="currentColor" />
  </g>
</svg>
