<?xml version="1.0" encoding="UTF-8" standalone="no"?>
<svg
   width="22"
   height="22"
   id="svg3869"
   version="1.1"
   viewBox="0 0 22 22.000001"
   xmlns="http://www.w3.org/2000/svg"
   xmlns:svg="http://www.w3.org/2000/svg"
   xmlns:rdf="http://www.w3.org/1999/02/22-rdf-syntax-ns#"
   xmlns:cc="http://creativecommons.org/ns#"
   xmlns:dc="http://purl.org/dc/elements/1.1/">
  <metadata
     id="metadata25">
    <rdf:RDF>
      <cc:Work
         rdf:about="">
        <dc:format>image/svg+xml</dc:format>
        <dc:type
           rdf:resource="http://purl.org/dc/dcmitype/StillImage" />
        <dc:title />
      </cc:Work>
    </rdf:RDF>
  </metadata>
  <defs
     id="defs3871">
    <style
       type="text/css"
       id="current-color-scheme">
      .ColorScheme-Text {
        color:#31363b;
      }
      .ColorScheme-Background {
        color:#eff0f1;
      }
      .ColorScheme-Highlight {
        color:#3daee9;
      }
      .ColorScheme-ViewText {
        color:#31363b;
      }
      .ColorScheme-ViewBackground {
        color:#fcfcfc;
      }
      .ColorScheme-ViewHover {
        color:#93cee9;
      }
      .ColorScheme-ViewFocus{
        color:#3daee9;
      }
      .ColorScheme-ButtonText {
        color:#31363b;
      }
      .ColorScheme-ButtonBackground {
        color:#eff0f1;
      }
      .ColorScheme-ButtonHover {
        color:#93cee9;
      }
      .ColorScheme-ButtonFocus{
        color:#3daee9;
      }
      </style>
  </defs>
  <g
     id="fcitx-quanpin-libpinyin">
    <path
       class="ColorScheme-Text"
       style="fill:currentColor;fill-opacity:1;stroke:none"
       d="M -22.5,-15 V 1 h 16 v -16 z m 7.509766,1.902344 0.980468,0.195312 c -0.01013,0.0507 -0.03402,0.09672 -0.04687,0.146485 1.876405,2.289048 5.7324222,3.787109 5.7324222,3.787109 l -0.3515624,0.9375 c -1e-7,0 -0.8084308,-0.3217555 -1.8242188,-0.8378906 L -10.5,-8 H -14 v 2 h 2.5 v 1 H -14 v 3 h 4.5 v 1 h -10 v -1 h 4.5 v -3 h -2.5 v -1 h 2.5 v -2 h -3.5 v -0.8242188 c -1.028696,0.5017155 -1.830078,0.7949219 -1.830078,0.7949219 l -0.339844,-0.9414062 c 0,0 1.341234,-0.4888121 2.736328,-1.2773439 1.395095,-0.788531 2.757475,-1.920184 2.94336,-2.849609 z M -14.5,-11.767578 c -0.667588,0.99691 -1.846139,1.7715609 -2.941406,2.3906249 -0.247806,0.140064 -0.483167,0.2560026 -0.720703,0.3769531 h 7.396484 c -1.191361,-0.6304816 -2.618179,-1.552755 -3.734375,-2.767578 z"
       transform="translate(25.5,18)"
       id="path4202" />
    <rect
       style="fill:none;fill-opacity:1;stroke:none;stroke-linejoin:miter"
       id="rect4196"
       width="22"
       height="22"
       x="0"
       y="0" />
  </g>
</svg>
