<?xml version="1.0" encoding="UTF-8" standalone="no"?>
<svg
   width="22"
   height="22"
   id="svg3869"
   version="1.1"
   viewBox="0 0 22 22.000001"
   xmlns="http://www.w3.org/2000/svg"
   xmlns:svg="http://www.w3.org/2000/svg"
   xmlns:rdf="http://www.w3.org/1999/02/22-rdf-syntax-ns#"
   xmlns:cc="http://creativecommons.org/ns#"
   xmlns:dc="http://purl.org/dc/elements/1.1/">
  <metadata
     id="metadata25">
    <rdf:RDF>
      <cc:Work
         rdf:about="">
        <dc:format>image/svg+xml</dc:format>
        <dc:type
           rdf:resource="http://purl.org/dc/dcmitype/StillImage" />
        <dc:title />
      </cc:Work>
    </rdf:RDF>
  </metadata>
  <defs
     id="defs3871">
    <style
       type="text/css"
       id="current-color-scheme">
      .ColorScheme-Text {
        color:#31363b;
      }
      .ColorScheme-Background {
        color:#eff0f1;
      }
      .ColorScheme-Highlight {
        color:#3daee9;
      }
      .ColorScheme-ViewText {
        color:#31363b;
      }
      .ColorScheme-ViewBackground {
        color:#fcfcfc;
      }
      .ColorScheme-ViewHover {
        color:#93cee9;
      }
      .ColorScheme-ViewFocus{
        color:#3daee9;
      }
      .ColorScheme-ButtonText {
        color:#31363b;
      }
      .ColorScheme-ButtonBackground {
        color:#eff0f1;
      }
      .ColorScheme-ButtonHover {
        color:#93cee9;
      }
      .ColorScheme-ButtonFocus{
        color:#3daee9;
      }
      </style>
  </defs>
  <g
     id="fcitx-cangjie">
    <path
       class="ColorScheme-Text"
       style="fill:currentColor;fill-opacity:1;stroke:none"
       d="m 179,15 v 16 h 16 V 15 Z m 1,1 h 14 v 14 h -14 z m 6.58398,0.722656 c -1.84354,2.765319 -5.64648,3.28125 -5.64648,3.28125 l 0.125,0.992188 c 0,0 0.83386,-0.123824 1.9375,-0.535156 V 24.5 c 0,0.833333 -0.45395,1.912573 -0.93359,2.751953 -0.47965,0.83938 -0.95704,1.435547 -0.95703,1.435547 l 0.78124,0.625 c 0,0 0.52262,-0.653833 1.04297,-1.564453 0.0223,-0.03907 0.044,-0.08499 0.0664,-0.125 L 183,29 h 0.5 7.5 v -3 h -7.27539 c 0.107,-0.326656 0.17843,-0.661039 0.2207,-1 H 191 v -4.539062 c 1.10364,0.411332 1.9375,0.535156 1.9375,0.535156 l 0.125,-0.992188 c 0,0 -3.80294,-0.515931 -5.64648,-3.28125 z M 187,17.703125 c 0.85882,1.069604 1.93347,1.798543 2.93359,2.296875 H 187.5 l 0.27734,-0.416016 -1.5,-1 -0.55468,0.832032 0.875,0.583984 h -2.53125 C 185.06653,19.501668 186.14118,18.772729 187,17.703125 Z M 184,21 h 6 v 3 h -6 v -1 h 5 v -1 h -5 z m 0,6 h 6 v 1 h -6 z"
       transform="translate(-176,-12)"
       id="path4280" />
    <rect
       style="fill:none;fill-opacity:1;stroke:none;stroke-linejoin:miter"
       id="rect4282"
       width="22"
       height="22"
       x="0"
       y="0" />
  </g>
</svg>
