<?xml version="1.0" encoding="UTF-8" standalone="no"?>
<svg
   width="22"
   height="22"
   id="svg3869"
   version="1.1"
   viewBox="0 0 22 22.000001"
   xmlns="http://www.w3.org/2000/svg"
   xmlns:svg="http://www.w3.org/2000/svg"
   xmlns:rdf="http://www.w3.org/1999/02/22-rdf-syntax-ns#"
   xmlns:cc="http://creativecommons.org/ns#"
   xmlns:dc="http://purl.org/dc/elements/1.1/">
  <metadata
     id="metadata25">
    <rdf:RDF>
      <cc:Work
         rdf:about="">
        <dc:format>image/svg+xml</dc:format>
        <dc:type
           rdf:resource="http://purl.org/dc/dcmitype/StillImage" />
        <dc:title />
      </cc:Work>
    </rdf:RDF>
  </metadata>
  <defs
     id="defs3871">
    <style
       type="text/css"
       id="current-color-scheme">
      .ColorScheme-Text {
        color:#31363b;
      }
      .ColorScheme-Background {
        color:#eff0f1;
      }
      .ColorScheme-Highlight {
        color:#3daee9;
      }
      .ColorScheme-ViewText {
        color:#31363b;
      }
      .ColorScheme-ViewBackground {
        color:#fcfcfc;
      }
      .ColorScheme-ViewHover {
        color:#93cee9;
      }
      .ColorScheme-ViewFocus{
        color:#3daee9;
      }
      .ColorScheme-ButtonText {
        color:#31363b;
      }
      .ColorScheme-ButtonBackground {
        color:#eff0f1;
      }
      .ColorScheme-ButtonHover {
        color:#93cee9;
      }
      .ColorScheme-ButtonFocus{
        color:#3daee9;
      }
      </style>
  </defs>
  <g
     id="fcitx-chewing">
    <path
       class="ColorScheme-Text"
       style="fill:currentColor;fill-opacity:1;stroke:none"
       d="M 91,37 V 37.5 53 h 16 V 37 Z m 1,1 h 14 V 52 H 92 Z m 1,1 v 1 h 1 v 3 h -1 v 8 h 1 4.5 0.5 V 43 H 98.5 97 v -3 h 2 v -1 z m 6,4 0.400391,0.300781 c 0,0 0.398251,-0.511169 0.796879,-1.300781 H 102 v 2 h -2 v 1 h 5 v -1 h -2 v -2 h 2 v -1 h -2 v -2 h -1 v 2 h -1.38281 C 100.83463,40.388658 101,39.708749 101,39 h -1 c 0,1.75 -1.400391,3.699219 -1.400391,3.699219 z m -4,-3 h 1 v 3 h -1 z m 0,4 h 1 v 3 h 1 v -3 h 1 v 6 h -4 v -1 h 3 v -1 h -3 v -1 h 1 z m 5,2 v 0.5 4.5 h 5 v -5 z m 1,1 h 3 v 3 h -3 z"
       id="path4265"
       transform="translate(-88,-34)" />
    <rect
       style="fill:none;fill-opacity:1;stroke:none;stroke-linejoin:miter"
       id="rect4267"
       width="22"
       height="22"
       x="0"
       y="0" />
  </g>
</svg>
