<?xml version="1.0" encoding="UTF-8" standalone="no"?>
<!-- Created with Inkscape (http://www.inkscape.org/) -->

<svg
   width="17.007811"
   height="16"
   id="svg3869"
   version="1.1"
   viewBox="0 0 17.007811 16"
   xmlns="http://www.w3.org/2000/svg"
   xmlns:svg="http://www.w3.org/2000/svg"
   xmlns:rdf="http://www.w3.org/1999/02/22-rdf-syntax-ns#"
   xmlns:cc="http://creativecommons.org/ns#"
   xmlns:dc="http://purl.org/dc/elements/1.1/">
  <defs
     id="defs3871" />
  <metadata
     id="metadata3874">
    <rdf:RDF>
      <cc:Work
         rdf:about="">
        <dc:format>image/svg+xml</dc:format>
        <dc:type
           rdf:resource="http://purl.org/dc/dcmitype/StillImage" />
        <dc:title />
      </cc:Work>
    </rdf:RDF>
  </metadata>
  <g
     id="layer1"
     transform="translate(-328.99219,-537.3622)">
    <g
       id="quota">
      <path
         id="rect4127"
         d="m 328.99219,537.3622 v 1 15 h 1 9 v -1 h -9 v -8 h 3 v -0.01 l 0.008,0.01 2,-2 h 8.99219 v 3 h 1 v -6 H 338 l -2,-2 -0.008,0.01 v -0.01 h -6 z"
         style="fill:#4d4d4d;fill-opacity:1;stroke:none" />
      <path
         id="path4203"
         transform="translate(326,534.3622)"
         d="m 17,12 a 3,1 0 0 0 -3,1 v 5 a 3,1 0 0 0 3,1 3,1 0 0 0 3,-1 v -5 a 3,1 0 0 0 -3,-1 z m 0,1 a 3,1 0 0 1 2,0.257812 v 0.486329 A 3,1 0 0 1 17,14 3,1 0 0 1 15,13.742188 V 13.255859 A 3,1 0 0 1 17,13 Z m -2,1.744141 A 3,1 0 0 0 17,15 3,1 0 0 0 19,14.744141 v 1 A 3,1 0 0 1 17,16 3,1 0 0 1 15,15.742188 Z m 0,2 A 3,1 0 0 0 17,17 3,1 0 0 0 19,16.744141 v 1 A 3,1 0 0 1 17,18 3,1 0 0 1 15,17.742188 Z"
         style="opacity:1;fill:#4d4d4d;fill-opacity:1;stroke:none;stroke-opacity:1" />
    </g>
  </g>
</svg>
