<?xml version="1.0" encoding="UTF-8" standalone="no"?>
<svg
   width="32"
   height="32"
   id="svg3869"
   version="1.1"
   viewBox="0 0 32 32.000001"
   xmlns="http://www.w3.org/2000/svg"
   xmlns:svg="http://www.w3.org/2000/svg"
   xmlns:rdf="http://www.w3.org/1999/02/22-rdf-syntax-ns#"
   xmlns:cc="http://creativecommons.org/ns#"
   xmlns:dc="http://purl.org/dc/elements/1.1/">
  <metadata
     id="metadata25">
    <rdf:RDF>
      <cc:Work
         rdf:about="">
        <dc:format>image/svg+xml</dc:format>
        <dc:type
           rdf:resource="http://purl.org/dc/dcmitype/StillImage" />
        <dc:title />
      </cc:Work>
    </rdf:RDF>
  </metadata>
  <defs
     id="defs3871">
    <style
       type="text/css"
       id="current-color-scheme">
      .ColorScheme-Text {
        color:#31363b;
      }
      .ColorScheme-Background {
        color:#eff0f1;
      }
      .ColorScheme-Highlight {
        color:#3daee9;
      }
      .ColorScheme-ViewText {
        color:#31363b;
      }
      .ColorScheme-ViewBackground {
        color:#fcfcfc;
      }
      .ColorScheme-ViewHover {
        color:#93cee9;
      }
      .ColorScheme-ViewFocus{
        color:#3daee9;
      }
      .ColorScheme-ButtonText {
        color:#31363b;
      }
      .ColorScheme-ButtonBackground {
        color:#eff0f1;
      }
      .ColorScheme-ButtonHover {
        color:#93cee9;
      }
      .ColorScheme-ButtonFocus{
        color:#3daee9;
      }
      </style>
  </defs>
  <g
     id="input-mouse-battery"
     transform="translate(-370,-556.36237)">
    <path
       id="path26"
       class="ColorScheme-Text"
       d="m 386,560.36238 a 8,9 0 0 0 -8,9 v 6 a 8,9 0 0 0 8,9 8,9 0 0 0 8,-9 v -6 a 8,9 0 0 0 -8,-9 z m 0,1 a 7,8 0 0 1 7,8 v 6 a 7,8 0 0 1 -7,8 7,8 0 0 1 -7,-8 v -6 a 7,8 0 0 1 7,-8 z m 0,3 a 1,1 0 0 0 -1,1 v 3 a 1,1 0 0 0 1,1 1,1 0 0 0 1,-1 v -3 a 1,1 0 0 0 -1,-1 z m 0,8 -2,5 h 2 v 3 l 2,-5 h -2 z"
       style="fill:currentColor;fill-opacity:1;stroke:none" />
    <rect
       style="opacity:1;fill:none"
       id="rect4378-6"
       width="32"
       height="32"
       x="370"
       y="556.36237"
       ry="0" />
  </g>
</svg>
