<?xml version="1.0" encoding="UTF-8" standalone="no"?>
<svg
   viewBox="0 0 22 22"
   version="1.1"
   id="svg3869"
   height="22"
   width="22"
   xmlns="http://www.w3.org/2000/svg"
   xmlns:svg="http://www.w3.org/2000/svg"
   xmlns:rdf="http://www.w3.org/1999/02/22-rdf-syntax-ns#"
   xmlns:cc="http://creativecommons.org/ns#"
   xmlns:dc="http://purl.org/dc/elements/1.1/">
  <metadata
     id="metadata16">
    <rdf:RDF>
      <cc:Work
         rdf:about="">
        <dc:format>image/svg+xml</dc:format>
        <dc:type
           rdf:resource="http://purl.org/dc/dcmitype/StillImage" />
        <dc:title />
      </cc:Work>
    </rdf:RDF>
  </metadata>
  <defs
     id="defs3871">
    <style
       id="current-color-scheme"
       type="text/css">
      .ColorScheme-Text {
        color:#31363b;
      }
      .ColorScheme-Background {
        color:#eff0f1;
      }
      .ColorScheme-Highlight {
        color:#3daee9;
      }
      .ColorScheme-ViewText {
        color:#31363b;
      }
      .ColorScheme-ViewBackground {
        color:#fcfcfc;
      }
      .ColorScheme-ViewHover {
        color:#93cee9;
      }
      .ColorScheme-ViewFocus{
        color:#3daee9;
      }
      .ColorScheme-ButtonText {
        color:#31363b;
      }
      .ColorScheme-ButtonBackground {
        color:#eff0f1;
      }
      .ColorScheme-ButtonHover {
        color:#93cee9;
      }
      .ColorScheme-ButtonFocus{
        color:#3daee9;
      }
      </style>
  </defs>
  <g
     transform="translate(-326,-534.36218)"
     id="kalarm-partdisabled">
    <rect
       y="534.36218"
       x="326"
       height="22"
       width="22"
       id="rect4178-6-3"
       style="opacity:1;fill:none;fill-opacity:1;stroke:none;stroke-width:0.1;stroke-linecap:square;stroke-linejoin:miter;stroke-miterlimit:4;stroke-dasharray:none;stroke-dashoffset:0;stroke-opacity:1" />
    <path
       id="path17"
       class="ColorScheme-Text"
       transform="translate(282,534.3622)"
       d="m 55,3 c -0.828427,0 -1.5,0.6715729 -1.5,1.5 6.63e-4,0.2386231 0.05825,0.4736447 0.167969,0.6855469 C 51.502537,5.78406 50.00218,7.7533785 50,10 c -0.002,2.980008 -1.27949,5.505927 -3,5.931641 v 1.021484 0.04687 h 10 v -1 H 48.804688 C 50.163678,14.73945 50.997227,12.46128 51,10 c 0,-2.209139 1.790861,-4 4,-4 2.209139,0 4,1.790861 4,4 0.0029,1.038786 0.154304,2.063561 0.443359,3 h 1.029297 C 60.164158,12.088507 60.001138,11.053804 60,10 59.999818,7.7524797 58.500038,5.7812718 56.333984,5.1816406 56.442427,4.9707447 56.499322,4.7371423 56.5,4.5 56.5,3.6715729 55.828427,3 55,3 Z"
       style="fill:currentColor;fill-opacity:1;stroke:none" />
    <path
       id="path19"
       d="m 340,548.3622 v 6 h 5 v -6 z"
       class="ColorScheme-Text"
       style="fill:currentColor;fill-opacity:0.6;stroke:none" />
  </g>
</svg>
