<?xml version="1.0" encoding="UTF-8" standalone="no"?>
<svg
   viewBox="0 0 22 22"
   version="1.1"
   id="svg3869"
   height="22"
   width="22"
   xmlns="http://www.w3.org/2000/svg"
   xmlns:svg="http://www.w3.org/2000/svg"
   xmlns:rdf="http://www.w3.org/1999/02/22-rdf-syntax-ns#"
   xmlns:cc="http://creativecommons.org/ns#"
   xmlns:dc="http://purl.org/dc/elements/1.1/">
  <metadata
     id="metadata16">
    <rdf:RDF>
      <cc:Work
         rdf:about="">
        <dc:format>image/svg+xml</dc:format>
        <dc:type
           rdf:resource="http://purl.org/dc/dcmitype/StillImage" />
        <dc:title />
      </cc:Work>
    </rdf:RDF>
  </metadata>
  <defs
     id="defs3871">
    <style
       id="current-color-scheme"
       type="text/css">
      .ColorScheme-Text {
        color:#31363b;
      }
      .ColorScheme-Background {
        color:#eff0f1;
      }
      .ColorScheme-Highlight {
        color:#3daee9;
      }
      .ColorScheme-ViewText {
        color:#31363b;
      }
      .ColorScheme-ViewBackground {
        color:#fcfcfc;
      }
      .ColorScheme-ViewHover {
        color:#93cee9;
      }
      .ColorScheme-ViewFocus{
        color:#3daee9;
      }
      .ColorScheme-ButtonText {
        color:#31363b;
      }
      .ColorScheme-ButtonBackground {
        color:#eff0f1;
      }
      .ColorScheme-ButtonHover {
        color:#93cee9;
      }
      .ColorScheme-ButtonFocus{
        color:#3daee9;
      }
      </style>
  </defs>
  <g
     transform="translate(-326,-534.36218)"
     id="kalarm-disabled">
    <rect
       y="534.36218"
       x="326"
       height="22"
       width="22"
       id="rect4178-6"
       style="opacity:1;fill:none;fill-opacity:1;stroke:none;stroke-width:0.1;stroke-linecap:square;stroke-linejoin:miter;stroke-miterlimit:4;stroke-dasharray:none;stroke-dashoffset:0;stroke-opacity:1" />
    <path
       id="path4183-7"
       class="ColorScheme-Text"
       transform="translate(304,534.3622)"
       d="M 33,3 A 1.5,1.5 0 0 0 31.5,4.5 1.5,1.5 0 0 0 31.667969,5.1855469 5,5 0 0 0 28,10 3.5,6 0 0 1 25,15.931641 V 16.953125 17 H 35 V 16 H 26.804688 A 4.5,7 0 0 0 29,10 a 4,4 0 0 1 4,-4 4,4 0 0 1 4,4 4.5,7 0 0 0 0.443359,3 h 1.029297 A 3.5,6 0 0 1 38,10 5,5 0 0 0 34.333984,5.1816406 1.5,1.5 0 0 0 34.5,4.5 1.5,1.5 0 0 0 33,3 Z"
       style="fill:currentColor;fill-opacity:1;stroke:none" />
    <path
       id="rect4145"
       transform="translate(304,534.3622)"
       d="m 36,14 v 6 h 2 v -6 z m 3,0 v 6 h 2 v -6 z"
       class="ColorScheme-Text"
       style="fill:currentColor;fill-opacity:0.6;stroke:none" />
  </g>
</svg>
