<?xml version="1.0" encoding="UTF-8" standalone="no"?>
<svg
   id="svg4153"
   version="1.1"
   width="22"
   height="22"
   viewBox="0 0 22 22"
   xmlns="http://www.w3.org/2000/svg"
   xmlns:svg="http://www.w3.org/2000/svg"
   xmlns:rdf="http://www.w3.org/1999/02/22-rdf-syntax-ns#"
   xmlns:cc="http://creativecommons.org/ns#"
   xmlns:dc="http://purl.org/dc/elements/1.1/">
  <metadata
     id="metadata4159">
    <rdf:RDF>
      <cc:Work
         rdf:about="">
        <dc:format>image/svg+xml</dc:format>
        <dc:type
           rdf:resource="http://purl.org/dc/dcmitype/StillImage" />
        <dc:title />
      </cc:Work>
    </rdf:RDF>
  </metadata>
  <defs
     id="defs4157">
    <style
       type="text/css"
       id="current-color-scheme">
      .ColorScheme-Text {
        color:#31363b;
      }
      .ColorScheme-Background {
        color:#eff0f1;
      }
      .ColorScheme-Highlight {
        color:#3daee9;
      }
      .ColorScheme-ViewText {
        color:#31363b;
      }
      .ColorScheme-ViewBackground {
        color:#fcfcfc;
      }
      .ColorScheme-ViewHover {
        color:#93cee9;
      }
      .ColorScheme-ViewFocus{
        color:#3daee9;
      }
      .ColorScheme-ButtonText {
        color:#31363b;
      }
      .ColorScheme-ButtonBackground {
        color:#eff0f1;
      }
      .ColorScheme-ButtonHover {
        color:#93cee9;
      }
      .ColorScheme-ButtonFocus{
        color:#3daee9;
      }
      </style>
  </defs>
  <g
     id="mail-unread-new"
     transform="translate(-27.000002)">
    <rect
       y="0"
       x="27.000002"
       height="22"
       width="22"
       id="rect4178"
       style="opacity:1;fill:none;fill-opacity:1;stroke:none" />
    <path
       style="fill:currentColor"
       d="m 28,3 v 1 8 6 0.414062 V 19 h 1 6 6 v -1 h -6 -6 v -0.585938 l 0.462891,-0.46289 6.267578,-6.267578 1.453125,1.451172 0.814453,0.814453 h 0.002 L 38.816453,12.134766 40.269578,10.683594 41.585938,12 H 43 L 40.976562,9.9765625 46.728516,4.2226562 46.951172,4 H 47 V 4.2226562 12 h 1 V 3 H 47.951172 47 46.537109 29.462891 29 Z m 1,1 h 0.04883 L 29.271486,4.2226562 35.02344,9.9765625 29,16 V 12 4.2226562 Z m 1.462891,0 H 45.537109 L 38,11.537109 Z M 45,13 44.425781,14.613281 42.878906,13.878906 43.613281,15.425781 42,16 43.613281,16.574219 42.878906,18.121094 44.425781,17.386719 45,19 45.574219,17.386719 47.121094,18.121094 46.386719,16.574219 48,16 l -1.613281,-0.574219 0.734375,-1.546875 -1.546875,0.734375 z"
       id="rect4144-0"
       class="ColorScheme-Text" />
  </g>
</svg>
