<?xml version="1.0" encoding="UTF-8" standalone="no"?>
<svg
   id="svg7229"
   viewBox="0 0 22 21.99991"
   version="1.1"
   width="22"
   height="21.99991"
   xmlns="http://www.w3.org/2000/svg"
   xmlns:svg="http://www.w3.org/2000/svg">
  <defs
     id="defs1" />
  <style
     type="text/css"
     id="current-color-scheme">
        .ColorScheme-Text {
            color:#232629;
        }
        .ColorScheme-NegativeText {
            color:#da4453;
        }
    </style>
  <g
     id="media-playback-playing"
     transform="matrix(1.4999765,0,0,1.4999765,-5.5004093,-1551.0188)">
    <path
       id="rect3003-1-2"
       d="m 3.666997,1034.0287 h 14.666897 v 14.6668 H 3.666997 Z"
       fill="none" />
    <path
       id="path3357-8-9"
       d="m 9.6665342,1043.3624 3.3336088,-2.0002 -3.3336088,-2.0002 z M 11,1036.0283 c -2.9549601,0 -5.333863,2.3789 -5.333863,5.3339 0,2.955 2.3789029,5.3339 5.333863,5.3339 2.95496,0 5.333863,-2.3789 5.333863,-5.3339 0,-2.955 -2.378903,-5.3339 -5.333863,-5.3339 z m 0,0.6668 c 2.58559,0 4.66713,2.0815 4.66713,4.6671 0,2.5856 -2.08154,4.6671 -4.66713,4.6671 -2.5855901,0 -4.6671301,-2.0815 -4.6671301,-4.6671 0,-2.5856 2.08154,-4.6671 4.6671301,-4.6671 z"
       class="ColorScheme-Text"
       fill="currentColor" />
  </g>
</svg>
