<?xml version="1.0" encoding="UTF-8" standalone="no"?>
<svg
   id="svg7229"
   viewBox="0 0 22 21.99991"
   version="1.1"
   width="22"
   height="21.99991"
   xmlns="http://www.w3.org/2000/svg"
   xmlns:svg="http://www.w3.org/2000/svg">
  <defs
     id="defs1" />
  <style
     type="text/css"
     id="current-color-scheme">
        .ColorScheme-Text {
            color:#232629;
        }
        .ColorScheme-NegativeText {
            color:#da4453;
        }
    </style>
  <g
     id="media-playback-paused"
     transform="matrix(1.4999765,0,0,1.4999765,-5.4999308,-1551.0188)">
    <path
       id="rect3003-0-3"
       d="m 3.666678,1034.0287 h 14.666897 v 14.6668 H 3.666678 Z"
       fill="none" />
    <path
       id="rect3287-9-5"
       d="m 11.666692,1039.3621 h 1.333385 v 4.0002 h -1.333385 z m -2.6667693,0 h 1.3333853 v 4.0002 H 8.9999227 Z M 11,1036.0287 c -2.9547808,0 -5.3335394,2.3787 -5.3335394,5.3335 0,2.9548 2.3787586,5.3335 5.3335394,5.3335 2.954781,0 5.333539,-2.3787 5.333539,-5.3335 0,-2.9548 -2.378758,-5.3335 -5.333539,-5.3335 z m 0,0.6667 c 2.585433,0 4.666847,2.0813 4.666847,4.6668 0,2.5855 -2.081414,4.6668 -4.666847,4.6668 -2.5854332,0 -4.666847,-2.0813 -4.666847,-4.6668 0,-2.5855 2.0814138,-4.6668 4.666847,-4.6668 z"
       class="ColorScheme-Text"
       fill="currentColor" />
  </g>
</svg>
