<?xml version="1.0" encoding="UTF-8" standalone="no"?>
<svg
   viewBox="0 0 22 22"
   height="22"
   width="22"
   version="1.1"
   id="svg4153"
   xmlns="http://www.w3.org/2000/svg"
   xmlns:svg="http://www.w3.org/2000/svg"
   xmlns:rdf="http://www.w3.org/1999/02/22-rdf-syntax-ns#"
   xmlns:cc="http://creativecommons.org/ns#"
   xmlns:dc="http://purl.org/dc/elements/1.1/">
  <metadata
     id="metadata4159">
    <rdf:RDF>
      <cc:Work
         rdf:about="">
        <dc:format>image/svg+xml</dc:format>
        <dc:type
           rdf:resource="http://purl.org/dc/dcmitype/StillImage" />
        <dc:title />
      </cc:Work>
    </rdf:RDF>
  </metadata>
  <defs
     id="defs4157">
    <style
       id="current-color-scheme"
       type="text/css">
      .ColorScheme-Text {
        color:#31363b;
      }
      .ColorScheme-Background {
        color:#eff0f1;
      }
      .ColorScheme-Highlight {
        color:#3498db;
      }
      .ColorScheme-ViewText {
        color:#31363b;
      }
      .ColorScheme-ViewBackground {
        color:#fcfcfc;
      }
      .ColorScheme-ViewHover {
        color:#93cee9;
      }
      .ColorScheme-ViewFocus{
        color:#3daee9;
      }
      .ColorScheme-ButtonText {
        color:#31363b;
      }
      .ColorScheme-ButtonBackground {
        color:#eff0f1;
      }
      .ColorScheme-ButtonHover {
        color:#93cee9;
      }
      .ColorScheme-ButtonFocus{
        color:#3daee9;
      }
      .ColorScheme-NegativeText{
        color:#e74c3c;
      }
      </style>
  </defs>
  <g
     transform="translate(45)"
     id="network-flightmode-on">
    <rect
       style="opacity:1;fill:none;fill-opacity:1;stroke:none"
       id="rect4528-3"
       width="22"
       height="22"
       x="-45"
       y="-1.3322676e-15" />
    <path
       class="ColorScheme-Text"
       id="path4467-5"
       transform="translate(21)"
       d="m -58,3 c -2.761424,0 -5,2.2385763 -5,5 h 1 c 0,-2.209139 1.790861,-4 4,-4 z m 3,0 c 0,0 -1,0 -1,3 v 2.5 l -1.099609,0.5507812 v -0.050781 h -0.800782 v 0.5507812 h -0.09961 v 0.1992188 l -2,0.9999998 v -0.5 h -0.09961 V 9.699219 h -0.800782 V 10.25 h -0.09961 v 1 l -2,1 v 1 l 2.191406,-0.273438 0.109375,0.273438 h 0.398438 l 0.142578,-0.355469 2.751953,-0.34375 h 0.105469 l 0.0059,-0.01367 L -56,12.125 V 15 c 0,0.487991 0.24052,0.971967 0.484375,1.34375 L -58,18 v 1 l 3,-1 3,1 v -1 l -2.484375,-1.65625 C -54.24052,15.971967 -54,15.487991 -54,15 v -2.875 l 1.294922,0.162109 0.0059,0.01367 h 0.105469 l 2.751953,0.34375 0.142578,0.355469 h 0.398438 L -49.191365,12.72656 -47,13 v -1 l -2,-1 v -1 h -0.09961 V 9.4492188 h -0.800782 V 10 h -0.09961 v 0.5 l -2,-1 V 9.3007812 h -0.09961 V 8.75 h -0.800782 V 8.800781 L -54,8.5 V 6 c 0,-3 -1,-3 -1,-3 z m -3,2 c -1.656854,0 -3,1.3431458 -3,3 h 1 c 0,-1.1045695 0.895431,-2 2,-2 z m 0,2 c 0,0 -1,0 -1,1 h 1 z"
       style="fill:currentColor;fill-opacity:1;fill-rule:evenodd;stroke:none;stroke-width:1px;stroke-linecap:butt;stroke-linejoin:miter;stroke-opacity:1" />
  </g>
</svg>
