<?xml version="1.0" encoding="UTF-8" standalone="no"?>
<svg
   viewBox="0 0 22 22"
   height="22"
   width="22"
   version="1.1"
   id="svg4153"
   xmlns="http://www.w3.org/2000/svg"
   xmlns:svg="http://www.w3.org/2000/svg"
   xmlns:rdf="http://www.w3.org/1999/02/22-rdf-syntax-ns#"
   xmlns:cc="http://creativecommons.org/ns#"
   xmlns:dc="http://purl.org/dc/elements/1.1/">
  <metadata
     id="metadata4159">
    <rdf:RDF>
      <cc:Work
         rdf:about="">
        <dc:format>image/svg+xml</dc:format>
        <dc:type
           rdf:resource="http://purl.org/dc/dcmitype/StillImage" />
        <dc:title />
      </cc:Work>
    </rdf:RDF>
  </metadata>
  <defs
     id="defs4157">
    <style
       id="current-color-scheme"
       type="text/css">
      .ColorScheme-Text {
        color:#31363b;
      }
      .ColorScheme-Background {
        color:#eff0f1;
      }
      .ColorScheme-Highlight {
        color:#3498db;
      }
      .ColorScheme-ViewText {
        color:#31363b;
      }
      .ColorScheme-ViewBackground {
        color:#fcfcfc;
      }
      .ColorScheme-ViewHover {
        color:#93cee9;
      }
      .ColorScheme-ViewFocus{
        color:#3daee9;
      }
      .ColorScheme-ButtonText {
        color:#31363b;
      }
      .ColorScheme-ButtonBackground {
        color:#eff0f1;
      }
      .ColorScheme-ButtonHover {
        color:#93cee9;
      }
      .ColorScheme-ButtonFocus{
        color:#3daee9;
      }
      .ColorScheme-NegativeText{
        color:#e74c3c;
      }
      </style>
  </defs>
  <g
     id="network-wired-available">
    <path
       class="ColorScheme-Text"
       transform="translate(22)"
       id="path4566"
       d="m -19,10 v 6 h 1 v -6 z"
       style="opacity:1;fill:currentColor;fill-opacity:1;stroke:none" />
    <path
       class="ColorScheme-ButtonFocus"
       id="path4564"
       transform="translate(22)"
       d="m -19,3 v 6 h 2 v 7 c 0,1.662 1.338,3 3,3 h 1 v -1 h -1 c -1.108,0 -2,-0.892 -2,-2 V 9 h 2 V 3 Z m 1,1 h 3 v 4 h -3 z m 1,1 v 2 h 1 V 5 Z"
       style="opacity:1;fill:currentColor;fill-opacity:1;stroke:none" />
    <path
       class="ColorScheme-Text"
       transform="translate(22)"
       id="path4562"
       d="m -15,14 v 1 1 h 1 1 V 17 17.726562 18 19 h 1 2 3 v -1 h -1 -1 v -2 h 1 4 1 V 3 h -1 -9 v 1 h 9 v 10 z"
       style="opacity:1;fill:currentColor;fill-opacity:1;stroke:none" />
    <rect
       y="0"
       x="0"
       height="22"
       width="22"
       id="rect4556"
       style="opacity:1;fill:none;fill-opacity:1;stroke:none" />
  </g>
</svg>
