<?xml version="1.0" encoding="UTF-8" standalone="no"?>
<svg
   viewBox="0 0 22 22"
   height="22"
   width="22"
   version="1.1"
   id="svg4153"
   xmlns="http://www.w3.org/2000/svg"
   xmlns:svg="http://www.w3.org/2000/svg"
   xmlns:rdf="http://www.w3.org/1999/02/22-rdf-syntax-ns#"
   xmlns:cc="http://creativecommons.org/ns#"
   xmlns:dc="http://purl.org/dc/elements/1.1/">
  <metadata
     id="metadata4159">
    <rdf:RDF>
      <cc:Work
         rdf:about="">
        <dc:format>image/svg+xml</dc:format>
        <dc:type
           rdf:resource="http://purl.org/dc/dcmitype/StillImage" />
        <dc:title />
      </cc:Work>
    </rdf:RDF>
  </metadata>
  <defs
     id="defs4157">
    <style
       id="current-color-scheme"
       type="text/css">
      .ColorScheme-Text {
        color:#31363b;
      }
      .ColorScheme-Background {
        color:#eff0f1;
      }
      .ColorScheme-Highlight {
        color:#3498db;
      }
      .ColorScheme-ViewText {
        color:#31363b;
      }
      .ColorScheme-ViewBackground {
        color:#fcfcfc;
      }
      .ColorScheme-ViewHover {
        color:#93cee9;
      }
      .ColorScheme-ViewFocus{
        color:#3daee9;
      }
      .ColorScheme-ButtonText {
        color:#31363b;
      }
      .ColorScheme-ButtonBackground {
        color:#eff0f1;
      }
      .ColorScheme-ButtonHover {
        color:#93cee9;
      }
      .ColorScheme-ButtonFocus{
        color:#3daee9;
      }
      .ColorScheme-NegativeText{
        color:#e74c3c;
      }
      </style>
  </defs>
  <g
     id="network-wired-activated">
    <path
       class="ColorScheme-Text"
       id="rect4467"
       d="m 3,3 v 6 h 2 v 7 c 0,1.662 1.338,3 3,3 h 1 1 2 3 v -1 h -1 -1 v -2 h 1 4 1 V 3 H 18 9 v 1 h 9 V 14 H 7 v 1 1 H 8 9 V 17 17.726562 18 H 8 C 6.892,18 6,17.108 6,16 V 9 H 8 V 3 Z M 4,4 H 7 V 8 H 4 Z M 5,5 V 7 H 6 V 5 Z m -2,5 v 6 h 1 v -6 z"
       style="opacity:1;fill:currentColor;fill-opacity:1;stroke:none" />
    <rect
       style="opacity:1;fill:none;fill-opacity:1;stroke:none"
       id="rect4509"
       width="22"
       height="22"
       x="0"
       y="0" />
  </g>
</svg>
