<?xml version="1.0" encoding="UTF-8" standalone="no"?>
<svg
   viewBox="0 0 22 22"
   height="22"
   width="22"
   version="1.1"
   id="svg4153"
   xmlns="http://www.w3.org/2000/svg"
   xmlns:svg="http://www.w3.org/2000/svg"
   xmlns:rdf="http://www.w3.org/1999/02/22-rdf-syntax-ns#"
   xmlns:cc="http://creativecommons.org/ns#"
   xmlns:dc="http://purl.org/dc/elements/1.1/">
  <metadata
     id="metadata4159">
    <rdf:RDF>
      <cc:Work
         rdf:about="">
        <dc:format>image/svg+xml</dc:format>
        <dc:type
           rdf:resource="http://purl.org/dc/dcmitype/StillImage" />
        <dc:title />
      </cc:Work>
    </rdf:RDF>
  </metadata>
  <defs
     id="defs4157">
    <style
       id="current-color-scheme"
       type="text/css">
      .ColorScheme-Text {
        color:#31363b;
      }
      .ColorScheme-Background {
        color:#eff0f1;
      }
      .ColorScheme-Highlight {
        color:#3498db;
      }
      .ColorScheme-ViewText {
        color:#31363b;
      }
      .ColorScheme-ViewBackground {
        color:#fcfcfc;
      }
      .ColorScheme-ViewHover {
        color:#93cee9;
      }
      .ColorScheme-ViewFocus{
        color:#3daee9;
      }
      .ColorScheme-ButtonText {
        color:#31363b;
      }
      .ColorScheme-ButtonBackground {
        color:#eff0f1;
      }
      .ColorScheme-ButtonHover {
        color:#93cee9;
      }
      .ColorScheme-ButtonFocus{
        color:#3daee9;
      }
      .ColorScheme-NegativeText{
        color:#e74c3c;
      }
      </style>
  </defs>
  <g
     transform="translate(22,-22)"
     id="network-wireless-connected-100">
    <rect
       style="opacity:0.55;fill:none;fill-opacity:1;stroke:none;stroke-width:3.56737px;stroke-linecap:butt;stroke-linejoin:miter;stroke-miterlimit:4;stroke-dasharray:none;stroke-dashoffset:0;stroke-opacity:1"
       id="rect4428"
       width="22"
       height="22"
       x="-22"
       y="22" />
    <g
       transform="translate(-51.97466,12.97765)"
       id="g4438">
      <path
         class="ColorScheme-Text"
         style="opacity:1;fill:currentColor;fill-opacity:1;stroke:none"
         d="m 40.97466,12.02235 c -4.155,0 -7.90594,1.67156 -10.61719,4.38281 l 0.70899,0.70899 c 2.5305,-2.5305 6.0302,-4.0918 9.9082,-4.0918 3.878,0 7.3777,1.5613 9.9082,4.0918 l 0.70899,-0.70899 C 48.8806,13.69391 45.12966,12.02235 40.97466,12.02235 Z"
         id="path4430" />
      <path
         class="ColorScheme-Text"
         style="opacity:1;fill:currentColor;fill-opacity:1;stroke:none"
         d="m 40.97466,16.02235 c -3.047,0 -5.79691,1.22659 -7.78516,3.21484 l 0.70704,0.70704 c 1.8075,-1.80751 4.30812,-2.92188 7.07812,-2.92188 2.77,0 5.27062,1.11437 7.07813,2.92188 l 0.70703,-0.70704 c -1.98825,-1.98825 -4.73816,-3.21484 -7.78516,-3.21484 z"
         id="path4432" />
      <path
         class="ColorScheme-Text"
         style="opacity:1;fill:currentColor;fill-opacity:1;stroke:none"
         d="m 40.97466,20.02235 c -1.939,0 -3.68983,0.77967 -4.95508,2.04492 l 0.70899,0.70899 c 1.0845,-1.0845 2.58409,-1.75391 4.24609,-1.75391 1.662,0 3.16159,0.66941 4.24609,1.75391 l 0.70899,-0.70899 c -1.26525,-1.26525 -3.01608,-2.04492 -4.95508,-2.04492 z"
         id="path4434" />
      <path
         class="ColorScheme-Text"
         style="opacity:1;fill:currentColor;fill-opacity:1;stroke:none"
         d="m 40.97466,24.02235 c -1.107996,0 -2,0.892004 -2,2 0,1.107996 0.892004,2 2,2 1.107996,0 2,-0.892004 2,-2 0,-1.107996 -0.892004,-2 -2,-2 z m 0,1 c 0.554,0 1,0.446 1,1 0,0.554 -0.446,1 -1,1 -0.554,0 -1,-0.446 -1,-1 0,-0.554 0.446,-1 1,-1 z"
         id="path4436" />
    </g>
  </g>
</svg>
