<?xml version="1.0" encoding="UTF-8" standalone="no"?>
<svg
   viewBox="0 0 22 22"
   height="22"
   width="22"
   version="1.1"
   id="svg4153"
   xmlns="http://www.w3.org/2000/svg"
   xmlns:svg="http://www.w3.org/2000/svg"
   xmlns:rdf="http://www.w3.org/1999/02/22-rdf-syntax-ns#"
   xmlns:cc="http://creativecommons.org/ns#"
   xmlns:dc="http://purl.org/dc/elements/1.1/">
  <metadata
     id="metadata4159">
    <rdf:RDF>
      <cc:Work
         rdf:about="">
        <dc:format>image/svg+xml</dc:format>
        <dc:type
           rdf:resource="http://purl.org/dc/dcmitype/StillImage" />
        <dc:title />
      </cc:Work>
    </rdf:RDF>
  </metadata>
  <defs
     id="defs4157">
    <style
       id="current-color-scheme"
       type="text/css">
      .ColorScheme-Text {
        color:#31363b;
      }
      .ColorScheme-Background {
        color:#eff0f1;
      }
      .ColorScheme-Highlight {
        color:#3498db;
      }
      .ColorScheme-ViewText {
        color:#31363b;
      }
      .ColorScheme-ViewBackground {
        color:#fcfcfc;
      }
      .ColorScheme-ViewHover {
        color:#93cee9;
      }
      .ColorScheme-ViewFocus{
        color:#3daee9;
      }
      .ColorScheme-ButtonText {
        color:#31363b;
      }
      .ColorScheme-ButtonBackground {
        color:#eff0f1;
      }
      .ColorScheme-ButtonHover {
        color:#93cee9;
      }
      .ColorScheme-ButtonFocus{
        color:#3daee9;
      }
      .ColorScheme-NegativeText{
        color:#e74c3c;
      }
      </style>
  </defs>
  <g
     id="network-unavailable"
     transform="translate(-182,-76)">
    <path
       style="opacity:0.5;fill:currentColor;fill-opacity:1;stroke:none"
       d="m 185,79 v 6 h 2 v 7 c 0,1.662 1.338,3 3,3 h 1 1 2 v -5 h -5 v 1 1 h 1 1 V 93 93.726562 94 h -1 c -1.108,0 -2,-0.892 -2,-2 v -7 h 2 v -6 z m 6,0 v 1 h 9 v 7 h 1 v -8 h -1 z m -5,1 h 3 v 4 h -3 z m 1,1 v 2 h 1 v -2 z m -2,5 v 6 h 1 v -6 z"
       id="path1595"
       class="ColorScheme-Text" />
    <rect
       style="opacity:1;fill:none;fill-opacity:1;stroke:none"
       id="rect1597"
       width="22"
       height="22"
       x="182"
       y="76" />
    <path
       id="path1609"
       d="M 195.84845,89.003252 195,89.851689 197.15156,92.003252 195,94.154815 l 0.84845,0.848437 2.15156,-2.151564 2.15154,2.151564 L 201,94.154815 198.84844,92.003252 201,89.851689 l -0.84845,-0.848437 -2.15154,2.151563 z"
       class="ColorScheme-NegativeText"
       style="fill:currentColor;fill-opacity:1;stroke:none;stroke-width:1.2" />
  </g>
</svg>
