<?xml version="1.0" encoding="UTF-8" standalone="no"?>
<svg
   viewBox="0 0 22 22"
   height="22"
   width="22"
   version="1.1"
   id="svg4153"
   xmlns="http://www.w3.org/2000/svg"
   xmlns:svg="http://www.w3.org/2000/svg"
   xmlns:rdf="http://www.w3.org/1999/02/22-rdf-syntax-ns#"
   xmlns:cc="http://creativecommons.org/ns#"
   xmlns:dc="http://purl.org/dc/elements/1.1/">
  <metadata
     id="metadata4159">
    <rdf:RDF>
      <cc:Work
         rdf:about="">
        <dc:format>image/svg+xml</dc:format>
        <dc:type
           rdf:resource="http://purl.org/dc/dcmitype/StillImage" />
        <dc:title />
      </cc:Work>
    </rdf:RDF>
  </metadata>
  <defs
     id="defs4157">
    <style
       id="current-color-scheme"
       type="text/css">
      .ColorScheme-Text {
        color:#31363b;
      }
      .ColorScheme-Background {
        color:#eff0f1;
      }
      .ColorScheme-Highlight {
        color:#3498db;
      }
      .ColorScheme-ViewText {
        color:#31363b;
      }
      .ColorScheme-ViewBackground {
        color:#fcfcfc;
      }
      .ColorScheme-ViewHover {
        color:#93cee9;
      }
      .ColorScheme-ViewFocus{
        color:#3daee9;
      }
      .ColorScheme-ButtonText {
        color:#31363b;
      }
      .ColorScheme-ButtonBackground {
        color:#eff0f1;
      }
      .ColorScheme-ButtonHover {
        color:#93cee9;
      }
      .ColorScheme-ButtonFocus{
        color:#3daee9;
      }
      .ColorScheme-NegativeText{
        color:#e74c3c;
      }
      </style>
  </defs>
  <g
     transform="translate(-66)"
     id="network-bluetooth-activated-locked">
    <rect
       y="0"
       x="66"
       height="22"
       width="22"
       id="rect4674-6"
       style="opacity:1;fill:none;fill-opacity:1;stroke:none" />
    <path
       id="path4676-7"
       class="ColorScheme-Text"
       transform="translate(-66)"
       d="m 142.99805,3 v 0.00195 7.039063 L 139.70508,6.7480469 139.70312,6.75 C 139.34738,6.3940462 138.70703,5.7539062 138.70703,5.7539062 L 138,6.4609375 142.54492,11.001953 138,15.542969 138.70703,16.25 c 0,0 0.64035,-0.640094 0.99609,-0.996094 h 0.002 L 143,11.960938 V 19 h 1 l 4,-4 -4,-4 4,-4 -4,-4 z M 144,4.4160156 146.58594,7.0019531 144,9.5878906 Z M 133,10 c -0.55228,0 -1,0.447715 -1,1 0,0.552285 0.44772,1 1,1 0.55228,0 1,-0.447715 1,-1 0,-0.552285 -0.44772,-1 -1,-1 z m 4,0 c -0.55228,0 -1,0.447715 -1,1 0,0.552285 0.44772,1 1,1 0.55228,0 1,-0.447715 1,-1 0,-0.552285 -0.44772,-1 -1,-1 z m 14,2 c -1.108,0 -2,0.892 -2,2 v 2 h -1 v 3 h 6 v -3 h -1 v -2 c 0,-1.108 -0.892,-2 -2,-2 z m -7,0.416016 2.58594,2.585937 L 144,17.587891 Z M 151,13 c 0.554,0 1,0.446 1,1 v 2 h -2 v -2 c 0,-0.554 0.446,-1 1,-1 z"
       style="fill:currentColor;fill-opacity:1;stroke:none" />
  </g>
</svg>
