<?xml version="1.0" encoding="UTF-8" standalone="no"?>
<svg
   id="svg4153"
   viewBox="0 0 32.000004 32"
   version="1.1"
   width="32.000004"
   height="32"
   xmlns="http://www.w3.org/2000/svg"
   xmlns:svg="http://www.w3.org/2000/svg">
  <defs
     id="defs1" />
  <style
     type="text/css"
     id="current-color-scheme">
        .ColorScheme-Text {
            color:#232629;
        }
    </style>
  <g
     id="plasmavault">
    <path
       id="rect4230"
       d="m 0,-1e-6 h 32.000004 v 32 H 0 Z"
       fill="none" />
    <path
       id="path875"
       d="M 4,4 V 28 H 28 V 7 H 17 L 14,4 Z m 1,1 h 8.585938 L 15.792969,7.2070312 10,13 H 5 Z m 16,8 a 4,4 0 0 1 4,4 v 3 h 2 v 7 H 15 v -7 h 2 v -3 a 4,4 0 0 1 4,-4 z m 0,1 a 3.0003099,3 0 0 0 -3,3 v 3 h 6 v -3 a 3.0003099,3 0 0 0 -3,-3 z"
       class="ColorScheme-Text"
       fill="currentColor" />
  </g>
</svg>
