<?xml version="1.0" encoding="UTF-8" standalone="no"?>
<svg
   viewBox="0 0 22 22"
   height="22"
   width="22"
   version="1.1"
   id="svg4153"
   xmlns="http://www.w3.org/2000/svg"
   xmlns:svg="http://www.w3.org/2000/svg"
   xmlns:rdf="http://www.w3.org/1999/02/22-rdf-syntax-ns#"
   xmlns:cc="http://creativecommons.org/ns#"
   xmlns:dc="http://purl.org/dc/elements/1.1/">
  <metadata
     id="metadata4159">
    <rdf:RDF>
      <cc:Work
         rdf:about="">
        <dc:format>image/svg+xml</dc:format>
        <dc:type
           rdf:resource="http://purl.org/dc/dcmitype/StillImage" />
        <dc:title />
      </cc:Work>
    </rdf:RDF>
  </metadata>
  <defs
     id="defs4157">
    <style
       id="current-color-scheme"
       type="text/css">
      .ColorScheme-Text {
        color:#31363b;
      }
      .ColorScheme-Background {
        color:#eff0f1;
      }
      .ColorScheme-Highlight {
        color:#3498db;
      }
      .ColorScheme-ViewText {
        color:#31363b;
      }
      .ColorScheme-ViewBackground {
        color:#fcfcfc;
      }
      .ColorScheme-ViewHover {
        color:#93cee9;
      }
      .ColorScheme-ViewFocus{
        color:#3daee9;
      }
      .ColorScheme-ButtonText {
        color:#31363b;
      }
      .ColorScheme-ButtonBackground {
        color:#eff0f1;
      }
      .ColorScheme-ButtonHover {
        color:#93cee9;
      }
      .ColorScheme-ButtonFocus{
        color:#3daee9;
      }
      .ColorScheme-NegativeText{
        color:#e74c3c;
      }
      </style>
  </defs>
  <g
     transform="translate(22,-109)"
     id="showinfo">
    <rect
       style="opacity:1;fill:none;fill-opacity:1;stroke:none"
       id="rect4400"
       width="22"
       height="22"
       x="-22"
       y="109" />
    <g
       transform="translate(-22,-921.3622)"
       id="layer1-8">
      <rect
         class="ColorScheme-Text"
         y="1036.3622"
         x="10"
         height="2"
         width="2"
         id="rect4120"
         style="opacity:1;fill:currentColor;fill-opacity:1;stroke:none" />
      <rect
         class="ColorScheme-Text"
         y="1039.3622"
         x="10"
         height="7"
         width="2"
         id="rect4124"
         style="opacity:1;fill:currentColor;fill-opacity:1;stroke:none" />
      <path
         class="ColorScheme-Text"
         id="rect4129"
         transform="translate(0,1030.3622)"
         d="m 11,3 c -4.432,0 -8,3.568 -8,8 0,4.432 3.568,8 8,8 4.432,0 8,-3.568 8,-8 0,-4.432 -3.568,-8 -8,-8 z m 0,1 c 3.878,0 7,3.122 7,7 0,3.878 -3.122,7 -7,7 C 7.122,18 4,14.878 4,11 4,7.122 7.122,4 11,4 Z"
         style="opacity:1;fill:currentColor;fill-opacity:1;stroke:none" />
    </g>
  </g>
</svg>
