<?xml version="1.0" encoding="UTF-8" standalone="no"?>
<svg
   viewBox="0 0 32 32"
   id="svg2"
   version="1.1"
   width="32"
   height="32"
   xmlns="http://www.w3.org/2000/svg"
   xmlns:svg="http://www.w3.org/2000/svg"
   xmlns:rdf="http://www.w3.org/1999/02/22-rdf-syntax-ns#"
   xmlns:cc="http://creativecommons.org/ns#"
   xmlns:dc="http://purl.org/dc/elements/1.1/">
  <metadata
     id="metadata21">
    <rdf:RDF>
      <cc:Work
         rdf:about="">
        <dc:format>image/svg+xml</dc:format>
        <dc:type
           rdf:resource="http://purl.org/dc/dcmitype/StillImage" />
        <dc:title />
      </cc:Work>
    </rdf:RDF>
  </metadata>
  <defs
     id="defs3051">
    <style
       type="text/css"
       id="current-color-scheme">
      .ColorScheme-Text {
        color:#31363b;
      }
      </style>
  </defs>
  <g
     transform="translate(-68,-1)"
     id="start-here-kde">
    <rect
       style="fill:none;fill-rule:evenodd;stroke:none;stroke-width:1px;stroke-linecap:butt;stroke-linejoin:miter;stroke-opacity:1"
       id="rect3343"
       width="32"
       height="32"
       x="68"
       y="1" />
    <path
       id="path20"
       style="fill:currentColor"
       transform="translate(46,1)"
       d="M 32,4 A 1.5,1.5 0 0 0 30.5,5.5 1.5,1.5 0 0 0 32,7 1.5,1.5 0 0 0 33.5,5.5 1.5,1.5 0 0 0 32,4 Z m 10.5,0 -3,3 4.5,4.5 -4.5,4.5 3,3 7.5,-7.5 z m -14,9 A 2.5,2.5 0 0 0 26,15.5 2.5,2.5 0 0 0 28.5,18 2.5,2.5 0 0 0 31,15.5 2.5,2.5 0 0 0 28.5,13 Z m 6.5,9 a 3,3 0 0 0 -3,3 3,3 0 0 0 3,3 3,3 0 0 0 3,-3 3,3 0 0 0 -3,-3 z"
       class="ColorScheme-Text" />
  </g>
</svg>
