<?xml version="1.0" encoding="UTF-8" standalone="no"?>
<svg
   id="svg2"
   version="1.1"
   viewBox="0 0 32 32"
   width="32"
   height="32"
   xmlns="http://www.w3.org/2000/svg"
   xmlns:svg="http://www.w3.org/2000/svg">
  <defs
     id="defs1" />
  <style
     id="current-color-scheme"
     type="text/css">
        .ColorScheme-Text {
            color:#232629;
        }
    </style>
  <g
     id="system-suspend"
     transform="translate(-22)">
    <path
       id="path74"
       d="M 22,0 V 32 H 54 V 0 Z"
       fill="none" />
    <g
       id="g64"
       class="ColorScheme-Text"
       fill="currentColor">
      <path
         id="path1336"
         transform="translate(0,-96)"
         d="m 31.761719,101.76172 a 12,12 0 0 0 -0.0039,0.008 A 12,12 0 0 0 26,112 a 12,12 0 0 0 12,12 12,12 0 0 0 10.238281,-5.76172 l -0.732422,-0.73242 A 11,11 0 0 1 42,119 11,11 0 0 1 31,108 a 11,11 0 0 1 1.486328,-5.50195 11,11 0 0 1 0.0078,-0.004 z m -0.960938,1.93945 A 12,12 0 0 0 30,108 12,12 0 0 0 42,120 12,12 0 0 0 46.326172,119.17969 11,11 0 0 1 38,123 11,11 0 0 1 27,112 a 11,11 0 0 1 3.800781,-8.29883 z"
         stroke-width="0.923077" />
      <path
         id="rect887-75"
         d="m 44,6 v 1 h 2.292969 l -2,2 L 44,9.29297 V 10 h 4 V 9 h -2.292969 l 2,-2 L 48,6.70703 V 6 h -0.707031 z" />
      <path
         id="rect887-35"
         d="m 42,13 v 1 h 2.292969 l -2,2 L 42,16.29297 V 17 h 4 v -1 h -2.292969 l 2,-2 L 46,13.70703 V 13 h -0.707031 z" />
      <path
         id="rect887-35-2"
         d="m 36,8 v 1 h 2.292969 l -2,2 L 36,11.29297 V 12 h 4 v -1 h -2.292969 l 2,-2 L 40,8.70703 V 8 h -0.707031 z" />
    </g>
  </g>
</svg>
