<?xml version="1.0" encoding="UTF-8" standalone="no"?>
<svg
   id="svg2"
   version="1.1"
   viewBox="0 0 32 32"
   width="32"
   height="32"
   xmlns="http://www.w3.org/2000/svg"
   xmlns:svg="http://www.w3.org/2000/svg">
  <defs
     id="defs1" />
  <style
     id="current-color-scheme"
     type="text/css">
        .ColorScheme-Text {
            color:#232629;
        }
    </style>
  <g
     id="system-lock-screen"
     transform="translate(-22)">
    <path
       id="path22"
       class="ColorScheme-Text"
       d="M 38,4 C 31.372583,4 26,9.372583 26,16 26,22.627417 31.372583,28 38,28 44.627417,28 50,22.627417 50,16 50,9.372583 44.627417,4 38,4 Z m 0,1 C 44.075132,5 49,9.9248678 49,16 49,22.075132 44.075132,27 38,27 31.924868,27 27,22.075132 27,16 27,9.9248678 31.924868,5 38,5 Z m 0,3 c -2.216,0 -4,1.784 -4,4 v 4 h -2 v 8 H 44 V 16 H 42 V 12 C 42,9.784 40.216,8 38,8 Z m 0,1 c 1.662,0 3,1.561 3,3.5 V 16 H 35 V 12.5 C 35,10.561 36.338,9 38,9 Z m -5,8 h 10 v 6 H 33 Z"
       fill="currentColor" />
    <path
       id="path24"
       d="M 22,0 V 32 H 54 V 0 Z"
       fill="none" />
  </g>
</svg>
