<?xml version="1.0" encoding="UTF-8" standalone="no"?>
<svg
   id="svg2"
   version="1.1"
   viewBox="0 0 32 32"
   width="32"
   height="32"
   xmlns="http://www.w3.org/2000/svg"
   xmlns:svg="http://www.w3.org/2000/svg">
  <defs
     id="defs1" />
  <style
     id="current-color-scheme"
     type="text/css">
        .ColorScheme-Text {
            color:#232629;
        }
    </style>
  <g
     id="system-suspend-hibernate"
     transform="translate(-22)">
    <path
       id="path1280"
       class="ColorScheme-Text"
       transform="translate(0,-64)"
       d="m 31.789062,69.242188 -0.867187,0.5 2.146484,3.716796 -3.615234,-0.96875 -0.257813,0.966797 4.580079,1.226563 L 36.84375,80 H 30.707031 L 27.353516,76.646484 26.646484,77.353516 29.292969,80 H 25 v 1 h 4.292969 l -2.646485,2.646484 0.707032,0.707032 L 30.707031,81 h 6.136719 l -3.068359,5.316406 -4.580079,1.226563 0.257813,0.966797 3.615234,-0.96875 -2.146484,3.716796 0.867187,0.5 2.146485,-3.716796 0.96875,3.615234 0.964844,-0.259766 L 34.642578,86.816406 38,81 l 3.357422,5.816406 -1.226563,4.580078 0.964844,0.259766 0.96875,-3.615234 2.146485,3.716796 0.867187,-0.5 -2.146484,-3.716796 3.615234,0.96875 0.257813,-0.966797 L 42.224609,86.316406 39.15625,81 h 6.136719 l 3.353515,3.353516 0.707032,-0.707032 L 46.707031,81 H 51 V 80 H 46.707031 L 49.353516,77.353516 48.646484,76.646484 45.292969,80 H 41 39.15625 38 v -0.002 l -3.357422,-5.814453 1.226563,-4.580078 -0.964844,-0.259766 -0.96875,3.615234 z"
       fill="currentColor" />
    <path
       id="path64"
       d="M 22,0 V 32 H 54 V 0 Z"
       fill="none" />
    <g
       id="g47"
       class="ColorScheme-Text"
       fill="currentColor">
      <path
         id="rect887-7"
         d="m 45,4 v 1 h 2.292969 l -2,2 L 45,7.29297 V 8 h 4 V 7 h -2.292969 l 2,-2 L 49,4.70703 V 4 h -0.707031 z" />
      <path
         id="rect887-9"
         d="m 42,10 v 1 h 2.292969 l -2,2 L 42,13.29297 V 14 h 4 v -1 h -2.292969 l 2,-2 L 46,10.70703 V 10 h -0.707031 z" />
      <path
         id="rect887-2"
         d="m 38,5 v 1 h 2.292969 l -2,2 L 38,8.29297 V 9 h 4 V 8 h -2.292969 l 2,-2 L 42,5.70703 V 5 h -0.707031 z" />
    </g>
  </g>
</svg>
