<?xml version="1.0" encoding="UTF-8" standalone="no"?>
<svg
   id="svg2"
   version="1.1"
   viewBox="0 0 32 32"
   width="32"
   height="32"
   xmlns="http://www.w3.org/2000/svg"
   xmlns:svg="http://www.w3.org/2000/svg">
  <defs
     id="defs1" />
  <style
     id="current-color-scheme"
     type="text/css">
        .ColorScheme-Text {
            color:#232629;
        }
    </style>
  <g
     id="system-switch-user"
     transform="translate(-22)">
    <path
       id="path84"
       d="M 22,0 V 32 H 54 V 0 Z"
       fill="none" />
    <path
       id="path1011"
       class="ColorScheme-Text"
       transform="translate(-54)"
       d="m 94,8 c -1.285847,0 -2.416677,0.617761 -3.148438,1.5605469 0.329275,0.112144 0.645954,0.2508111 0.945313,0.4179687 C 92.345252,9.3811132 93.12515,9 94,9 c 1.656852,0 3,1.343147 3,3 0,1.398728 -0.960744,2.564273 -2.255859,2.896484 6.21e-4,0.03481 0.0059,0.06856 0.0059,0.103516 0,0.318095 -0.03235,0.627594 -0.08203,0.931641 C 96.557605,15.612437 98,13.980455 98,12 98,9.790862 96.209142,8 94,8 Z m -5,12 c -3.881058,0 -7,2.689616 -7,6.435547 0.0033,0.527414 0.06906,1.051937 0.198034,1.564453 h 1.111737 11.662458 0.884292 C 95.985519,27.487484 95.997113,26.963414 96,26.436 96,22.690069 92.881058,20 89,20 Z m 0.027,0.992 c 3.813868,0 5.973,2.274365 5.973,5.444 -0.0011,0.174256 -0.01135,0.347611 -0.029,0.521 H 83.029 C 83.01135,26.783611 83.00159,26.609803 83,26.435547 83,23.265912 85.179706,20.992 88.972735,20.992 Z m 6.224205,-3.992043 c -0.25686,0 -0.509035,0.01606 -0.758429,0.04297 -0.12585,0.383697 -0.291433,0.751062 -0.492776,1.097662 0.410411,-0.09117 0.830028,-0.138336 1.251205,-0.140627 3.153826,1e-6 5.710515,2.46245 5.710515,5.500033 -9e-4,0.166968 -0.009,0.333807 -0.0264,0.500003 h -4.53029 c 0.108739,0.321192 0.202605,0.648801 0.269709,0.986334 L 101.80938,25 c 0.12388,-0.491162 0.18785,-0.994566 0.19062,-1.500008 0,-3.589871 -3.02155,-6.500039 -6.748795,-6.500038 z M 89,11 c -2.209143,0 -4,1.790862 -4,4 0,2.20914 1.790857,4.000001 4,4 2.209142,1e-6 4,-1.79086 4,-4 0,-2.209138 -1.790858,-4 -4,-4 z m 0,1 c 1.656852,0 3,1.343147 3,3 0,1.656854 -1.343148,3.000001 -3,3 -1.656852,1e-6 -3,-1.343146 -3,-3 0,-1.656853 1.343148,-3 3,-3 z m 3.027,-8.2000013 c -2.034737,0 -3.684211,1.6454851 -3.684211,3.6752924 V 8.090575 L 86.736,6.388 86.123,7.1309525 88.356,9.358 89,10 89.582,9.257328 91.646,7.03 91.002,6.3882909 89.295,8.091 V 7.475 c 0,-1.449863 1.278621,-2.6249178 2.732,-2.6249178 1.453379,0 1.973,0.519045 1.973,1.968908 h 1 C 95,4.718823 93.883088,3.8390773 92.027,3.7999987 Z"
       fill="currentColor" />
  </g>
</svg>
