<?xml version="1.0" encoding="UTF-8" standalone="no"?>
<svg
   id="svg2"
   version="1.1"
   viewBox="0 0 32 32"
   width="32"
   height="32"
   xmlns="http://www.w3.org/2000/svg"
   xmlns:svg="http://www.w3.org/2000/svg">
  <defs
     id="defs1" />
  <style
     id="current-color-scheme"
     type="text/css">
        .ColorScheme-Text {
            color:#232629;
        }
    </style>
  <g
     id="system-reboot"
     transform="matrix(0,-1,-1,0,32,54)">
    <path
       id="path32"
       class="ColorScheme-Text"
       d="M 38,4 A 12,12 0 0 0 31.916016,5.671875 L 37.292969,11.050781 38,10.339844 33.595703,5.9355469 A 11,11 0 0 1 38,5 11,11 0 0 1 49,16 11,11 0 0 1 47.595703,21.351562 l 0.732422,0.728516 A 12,12 0 0 0 50,16 12,12 0 0 0 38,4 Z M 27.671875,9.9160156 A 12,12 0 0 0 26,16 12,12 0 0 0 38,28 12,12 0 0 0 44.083984,26.328125 L 38.707031,20.949219 38,21.65625 42.40625,26.060547 A 11,11 0 0 1 38,27 11,11 0 0 1 27,16 11,11 0 0 1 28.404297,10.648438 Z"
       fill="currentColor" />
    <path
       id="path34"
       d="M 22,0 V 32 H 54 V 0 Z"
       fill="none" />
  </g>
</svg>
