<?xml version="1.0" encoding="UTF-8" standalone="no"?>
<!-- Created with Inkscape (http://www.inkscape.org/) -->

<svg
   id="svg4153"
   version="1.1"
   width="22"
   height="22"
   viewBox="0 0 22 22"
   xmlns="http://www.w3.org/2000/svg"
   xmlns:svg="http://www.w3.org/2000/svg"
   xmlns:rdf="http://www.w3.org/1999/02/22-rdf-syntax-ns#"
   xmlns:cc="http://creativecommons.org/ns#"
   xmlns:dc="http://purl.org/dc/elements/1.1/">
  <metadata
     id="metadata4159">
    <rdf:RDF>
      <cc:Work
         rdf:about="">
        <dc:format>image/svg+xml</dc:format>
        <dc:type
           rdf:resource="http://purl.org/dc/dcmitype/StillImage" />
        <dc:title />
      </cc:Work>
    </rdf:RDF>
  </metadata>
  <defs
     id="defs4157">
    <style
       type="text/css"
       id="current-color-scheme">
      .ColorScheme-Text {
        color:#31363b;
      }
      .ColorScheme-Background {
        color:#eff0f1;
      }
      .ColorScheme-Highlight {
        color:#3daee9;
      }
      .ColorScheme-ViewText {
        color:#31363b;
      }
      .ColorScheme-ViewBackground {
        color:#fcfcfc;
      }
      .ColorScheme-ViewHover {
        color:#93cee9;
      }
      .ColorScheme-ViewFocus{
        color:#3daee9;
      }
      .ColorScheme-ButtonText {
        color:#31363b;
      }
      .ColorScheme-ButtonBackground {
        color:#eff0f1;
      }
      .ColorScheme-ButtonHover {
        color:#93cee9;
      }
      .ColorScheme-ButtonFocus{
        color:#3daee9;
      }
      </style>
  </defs>
  <g
     id="user-away-extended"
     transform="translate(-44)">
    <rect
       style="opacity:0.97;fill:none;fill-opacity:1;stroke:none"
       id="rect4649"
       width="22"
       height="22"
       x="44"
       y="0" />
    <circle
       style="opacity:1;fill:#9b59b6;fill-opacity:1;stroke:none"
       id="circle4653"
       cx="59.500015"
       cy="15.5"
       r="3.4999852" />
    <path
       style="opacity:1;fill:#9b59b6;fill-opacity:1;stroke:none"
       d="m 55.00004,2.99961 a 3.9999902,4.0000296 0 0 0 -4,4 3.9999902,4.0000296 0 0 0 4,4 3.9999902,4.0000296 0 0 0 4,-4 3.9999902,4.0000296 0 0 0 -4,-4 z m 0,1 a 3,3.0000296 0 0 1 3,3 3,3.0000296 0 0 1 -3,3 3,3.0000296 0 0 1 -3,-3 3,3.0000296 0 0 1 3,-3 z"
       id="path4655" />
    <path
       style="opacity:1;fill:#9b59b6;fill-opacity:1;stroke:none"
       d="m 55.00004,12 a 7.9999504,8.0000296 0 0 0 -7.927734,7 h 1.007812 a 6.9999604,7.0000296 0 0 1 6.919922,-6 6.9999604,7.0000296 0 0 1 1,0.08008 v -1.009766 a 7.9999504,8.0000296 0 0 0 -1,-0.07031 z"
       id="path4657" />
    <circle
       r="0.5"
       cy="-57.500046"
       cx="15.5"
       id="circle4659"
       style="opacity:0.7;fill:currentColor;fill-opacity:1;stroke:none"
       transform="rotate(90)"
       class="ColorScheme-Background" />
    <circle
       style="opacity:0.4;fill:currentColor;fill-opacity:1;stroke:none"
       id="circle4661"
       cx="59.500046"
       cy="15.5"
       r="0.5"
       class="ColorScheme-Background" />
    <circle
       style="opacity:0.3;fill:currentColor;fill-opacity:1;stroke:none"
       id="circle4663"
       cx="61.500046"
       cy="15.5"
       r="0.5"
       class="ColorScheme-Background" />
  </g>
</svg>
