<?xml version="1.0" encoding="UTF-8" standalone="no"?>
<!-- Created with Inkscape (http://www.inkscape.org/) -->

<svg
   id="svg4153"
   version="1.1"
   width="22"
   height="22"
   viewBox="0 0 22 22"
   xmlns="http://www.w3.org/2000/svg"
   xmlns:svg="http://www.w3.org/2000/svg"
   xmlns:rdf="http://www.w3.org/1999/02/22-rdf-syntax-ns#"
   xmlns:cc="http://creativecommons.org/ns#"
   xmlns:dc="http://purl.org/dc/elements/1.1/">
  <metadata
     id="metadata4159">
    <rdf:RDF>
      <cc:Work
         rdf:about="">
        <dc:format>image/svg+xml</dc:format>
        <dc:type
           rdf:resource="http://purl.org/dc/dcmitype/StillImage" />
        <dc:title />
      </cc:Work>
    </rdf:RDF>
  </metadata>
  <defs
     id="defs4157">
    <style
       type="text/css"
       id="current-color-scheme">
      .ColorScheme-Text {
        color:#31363b;
      }
      .ColorScheme-Background {
        color:#eff0f1;
      }
      .ColorScheme-Highlight {
        color:#3daee9;
      }
      .ColorScheme-ViewText {
        color:#31363b;
      }
      .ColorScheme-ViewBackground {
        color:#fcfcfc;
      }
      .ColorScheme-ViewHover {
        color:#93cee9;
      }
      .ColorScheme-ViewFocus{
        color:#3daee9;
      }
      .ColorScheme-ButtonText {
        color:#31363b;
      }
      .ColorScheme-ButtonBackground {
        color:#eff0f1;
      }
      .ColorScheme-ButtonHover {
        color:#93cee9;
      }
      .ColorScheme-ButtonFocus{
        color:#3daee9;
      }
      </style>
  </defs>
  <g
     id="user-offline"
     transform="translate(22)">
    <rect
       style="opacity:0.97;fill:none;fill-opacity:1;stroke:none"
       id="rect4564"
       width="22"
       height="22"
       x="-22"
       y="0" />
    <ellipse
       ry="3.2499855"
       rx="3.2500012"
       cy="15.5"
       cx="-6.4999957"
       id="path4146"
       style="opacity:1;fill:currentColor;fill-opacity:1;stroke:none"
       class="ColorScheme-Background" />
    <path
       id="path4149-3"
       d="m -11,2.99961 a 3.9999902,4.0000296 0 0 0 -4,4 3.9999902,4.0000296 0 0 0 4,4 3.9999902,4.0000296 0 0 0 4,-4 3.9999902,4.0000296 0 0 0 -4,-4 z m 0,1 a 3,3.0000296 0 0 1 3,3 3,3.0000296 0 0 1 -3,3 3,3.0000296 0 0 1 -3,-3 3,3.0000296 0 0 1 3,-3 z"
       style="opacity:1;fill:#bdc3c7;fill-opacity:1;stroke:none"
       class="ColorScheme-Text" />
    <path
       id="ellipse4156-75"
       d="m -11,12 a 7.9999504,8.0000296 0 0 0 -7.927734,7 h 1.007812 A 6.9999604,7.0000296 0 0 1 -11,13 a 6.9999604,7.0000296 0 0 1 1,0.08008 V 12.070314 A 7.9999504,8.0000296 0 0 0 -11,12 Z"
       style="opacity:1;fill:#bdc3c7;fill-opacity:1;stroke:none"
       class="ColorScheme-Text" />
    <path
       id="path4167-8"
       d="M -6.5,12 A 3.5,3.5 0 0 0 -10,15.5 3.5,3.5 0 0 0 -6.5,19 3.5,3.5 0 0 0 -3,15.5 3.5,3.5 0 0 0 -6.5,12 Z m 0,1 A 2.5,2.5 0 0 1 -4,15.5 2.5,2.5 0 0 1 -6.5,18 2.5,2.5 0 0 1 -9,15.5 2.5,2.5 0 0 1 -6.5,13 Z"
       style="opacity:1;fill:#bdc3c7;fill-opacity:1;stroke:none" />
    <rect
       transform="rotate(90)"
       y="4.9999957"
       x="15"
       height="2.9999912"
       width="0.99997091"
       id="rect4152-8"
       style="opacity:1;fill:#bdc3c7;fill-opacity:1;stroke:none" />
  </g>
</svg>
