<?xml version="1.0" encoding="UTF-8" standalone="no"?>
<!-- Created with Inkscape (http://www.inkscape.org/) -->

<svg
   id="svg4153"
   version="1.1"
   width="22"
   height="22"
   viewBox="0 0 22 22"
   xmlns="http://www.w3.org/2000/svg"
   xmlns:svg="http://www.w3.org/2000/svg"
   xmlns:rdf="http://www.w3.org/1999/02/22-rdf-syntax-ns#"
   xmlns:cc="http://creativecommons.org/ns#"
   xmlns:dc="http://purl.org/dc/elements/1.1/">
  <metadata
     id="metadata4159">
    <rdf:RDF>
      <cc:Work
         rdf:about="">
        <dc:format>image/svg+xml</dc:format>
        <dc:type
           rdf:resource="http://purl.org/dc/dcmitype/StillImage" />
        <dc:title />
      </cc:Work>
    </rdf:RDF>
  </metadata>
  <defs
     id="defs4157">
    <style
       type="text/css"
       id="current-color-scheme">
      .ColorScheme-Text {
        color:#31363b;
      }
      .ColorScheme-Background {
        color:#eff0f1;
      }
      .ColorScheme-Highlight {
        color:#3daee9;
      }
      .ColorScheme-ViewText {
        color:#31363b;
      }
      .ColorScheme-ViewBackground {
        color:#fcfcfc;
      }
      .ColorScheme-ViewHover {
        color:#93cee9;
      }
      .ColorScheme-ViewFocus{
        color:#3daee9;
      }
      .ColorScheme-ButtonText {
        color:#31363b;
      }
      .ColorScheme-ButtonBackground {
        color:#eff0f1;
      }
      .ColorScheme-ButtonHover {
        color:#93cee9;
      }
      .ColorScheme-ButtonFocus{
        color:#3daee9;
      }
      </style>
  </defs>
  <g
     id="user-online">
    <rect
       y="0"
       x="0"
       height="22"
       width="22"
       id="rect4554"
       style="opacity:0.97;fill:none;fill-opacity:1;stroke:none" />
    <path
       id="path4149-8"
       d="m 10.96392,2.99961 a 3.9999902,4.0000296 0 0 0 -4,4 3.9999902,4.0000296 0 0 0 4,4 3.9999902,4.0000296 0 0 0 4,-4 3.9999902,4.0000296 0 0 0 -4,-4 z m 0,1 a 3,3.0000296 0 0 1 3,3 3,3.0000296 0 0 1 -3,3 3,3.0000296 0 0 1 -3,-3 3,3.0000296 0 0 1 3,-3 z"
       style="opacity:1;fill:#43be80;fill-opacity:1;stroke:none" />
    <path
       id="ellipse4156-8"
       d="m 10.96392,12 a 7.9999504,8.0000296 0 0 0 -7.9277344,7 h 1.0078125 a 6.9999604,7.0000296 0 0 1 6.9199219,-6 6.9999604,7.0000296 0 0 1 1,0.08008 v -1.009766 a 7.9999504,8.0000296 0 0 0 -1,-0.07031 z"
       style="opacity:1;fill:#43be80;fill-opacity:1;stroke:none" />
    <circle
       r="3.5"
       cy="15.5"
       cx="15.463924"
       id="path4144"
       style="opacity:1;fill:#43be80;fill-opacity:1;stroke:none" />
    <path
       id="path4166"
       d="m 16.96391,14.00003 1,1 -3,3 -2,-2 1,-1 1,1 z"
       style="fill:currentColor;fill-rule:evenodd;stroke:none;stroke-width:1px;stroke-linecap:butt;stroke-linejoin:miter;stroke-opacity:1"
       class="ColorScheme-Background" />
  </g>
</svg>
