<?xml version="1.0" encoding="UTF-8" standalone="no"?>
<svg
   id="svg2"
   version="1.1"
   viewBox="0 0 32 32"
   width="32"
   height="32"
   xmlns="http://www.w3.org/2000/svg"
   xmlns:svg="http://www.w3.org/2000/svg">
  <defs
     id="defs3615">
    <style
       id="current-color-scheme"
       type="text/css">
            .ColorScheme-Text {
                color:#232629;
            }
        </style>
  </defs>
  <g
     id="view-history"
     transform="translate(-22)">
    <path
       id="path22"
       class="ColorScheme-Text"
       d="M 38,4 A 12,12 0 0 0 26,16 12,12 0 0 0 38,28 12,12 0 0 0 50,16 12,12 0 0 0 38,4 Z m 0,1 A 11,11 0 0 1 49,16 11,11 0 0 1 38,27 11,11 0 0 1 27,16 11,11 0 0 1 38,5 Z m -1,2 v 10 h 9 V 16 H 38 V 7 Z"
       fill="currentColor" />
    <path
       id="path24"
       d="M 22,0 V 32 H 54 V 0 Z"
       fill="none" />
  </g>
</svg>
